<?xml version="1.0" encoding="UTF-8" standalone="no"?>
<!-- Created with Inkscape (http://www.inkscape.org/) -->

<svg
   xmlns:dc="http://purl.org/dc/elements/1.1/"
   xmlns:cc="http://creativecommons.org/ns#"
   xmlns:rdf="http://www.w3.org/1999/02/22-rdf-syntax-ns#"
   xmlns:svg="http://www.w3.org/2000/svg"
   xmlns="http://www.w3.org/2000/svg"
   xmlns:sodipodi="http://sodipodi.sourceforge.net/DTD/sodipodi-0.dtd"
   xmlns:inkscape="http://www.inkscape.org/namespaces/inkscape"
   width="8.25in"
   height="10.5in"
   viewBox="0 0 209.54999 266.70001"
   version="1.1"
   id="svg1288"
   inkscape:version="0.92.5 (0.92.5+68)"
   sodipodi:docname="punchout-2-cut.svg"
   inkscape:export-filename="./punchout-2-cut.png"
   inkscape:export-xdpi="300"
   inkscape:export-ydpi="300">
  <defs
     id="defs1282" />
  <sodipodi:namedview
     id="base"
     pagecolor="#ffffff"
     bordercolor="#666666"
     borderopacity="1.0"
     inkscape:pageopacity="0.0"
     inkscape:pageshadow="2"
     inkscape:zoom="0.4560547"
     inkscape:cx="-330.13308"
     inkscape:cy="605.39475"
     inkscape:document-units="mm"
     inkscape:current-layer="layer1"
     showgrid="false"
     units="in"
     inkscape:window-width="1875"
     inkscape:window-height="1056"
     inkscape:window-x="45"
     inkscape:window-y="24"
     inkscape:window-maximized="1"
     inkscape:snap-global="true"
     showguides="false">
    <inkscape:grid
       type="xygrid"
       id="grid2338" />
  </sodipodi:namedview>
  <metadata
     id="metadata1285">
    <rdf:RDF>
      <cc:Work
         rdf:about="">
        <dc:format>image/svg+xml</dc:format>
        <dc:type
           rdf:resource="http://purl.org/dc/dcmitype/StillImage" />
        <dc:title></dc:title>
      </cc:Work>
    </rdf:RDF>
  </metadata>
  <g
     inkscape:groupmode="layer"
     id="layer1"
     inkscape:label="cut"
     style="display:inline">
    <path
       style="opacity:1;fill:none;fill-opacity:1;stroke:#ff0000;stroke-width:0.26458332;stroke-linecap:butt;stroke-linejoin:miter;stroke-miterlimit:4;stroke-dasharray:none;stroke-dashoffset:0;stroke-opacity:1;paint-order:normal"
       d="m 176.04479,53.424756 v 7.76276 h -16.26502 v 0 -7.76276"
       id="path913-6-3"
       inkscape:connector-curvature="0" />
    <path
       style="opacity:1;fill:none;fill-opacity:1;stroke:#ff0000;stroke-width:0.26458332;stroke-linecap:butt;stroke-linejoin:miter;stroke-miterlimit:4;stroke-dasharray:none;stroke-dashoffset:0;stroke-opacity:1;paint-order:normal"
       d="m 198.30553,53.424754 v 7.76276 H 182.0405 v 0 -7.76276"
       id="path913-3-5"
       inkscape:connector-curvature="0" />
    <path
       id="path6594-9-95-744-159-6"
       style="opacity:1;fill:none;fill-opacity:1;stroke:#ff0000;stroke-width:0.26458332;stroke-linecap:butt;stroke-linejoin:miter;stroke-miterlimit:4;stroke-dasharray:none;stroke-dashoffset:0;stroke-opacity:1;paint-order:normal"
       d="m 176.04479,36.9205 v 8.00202 m -16.26503,0 V 36.9205 m 1e-5,16.004036 v -8.00202 h 16.26502 v 8.00202"
       inkscape:connector-curvature="0" />
    <path
       id="path6594-9-95-744-3-2"
       style="opacity:1;fill:none;fill-opacity:1;stroke:#ff0000;stroke-width:0.26458332;stroke-linecap:butt;stroke-linejoin:miter;stroke-miterlimit:4;stroke-dasharray:none;stroke-dashoffset:0;stroke-opacity:1;paint-order:normal"
       d="m 198.30552,36.920495 v 8.00202 m -16.26502,0 v -8.00202 m 0,16.004039 v -8.00202 h 16.26503 v 8.00202"
       inkscape:connector-curvature="0" />
    <path
       inkscape:connector-curvature="0"
       id="path6592-2-4-54-56-9"
       d="m 159.77977,20.155281 v -7.76276 h 16.26502 v 0 7.76276"
       style="opacity:1;fill:none;fill-opacity:1;stroke:#ff0000;stroke-width:0.26458332;stroke-linecap:butt;stroke-linejoin:miter;stroke-miterlimit:4;stroke-dasharray:none;stroke-dashoffset:0;stroke-opacity:1;paint-order:normal" />
    <path
       id="path6594-9-95-744-39-1"
       style="opacity:1;fill:none;fill-opacity:1;stroke:#ff0000;stroke-width:0.26458332;stroke-linecap:butt;stroke-linejoin:miter;stroke-miterlimit:4;stroke-dasharray:none;stroke-dashoffset:0;stroke-opacity:1;paint-order:normal"
       d="m 176.04479,20.655501 v 8.00202 m -16.26502,0 v -8.00202 m -1e-5,15.764779 v -7.76276 h 16.26503 v 0 7.76276"
       inkscape:connector-curvature="0" />
    <path
       inkscape:connector-curvature="0"
       id="path6592-2-4-54-29-2"
       d="m 182.0405,20.155276 v -7.76276 h 16.26502 v 0 7.76276"
       style="opacity:1;fill:none;fill-opacity:1;stroke:#ff0000;stroke-width:0.26458332;stroke-linecap:butt;stroke-linejoin:miter;stroke-miterlimit:4;stroke-dasharray:none;stroke-dashoffset:0;stroke-opacity:1;paint-order:normal" />
    <path
       id="path6594-9-95-744-390-7"
       style="opacity:1;fill:none;fill-opacity:1;stroke:#ff0000;stroke-width:0.26458332;stroke-linecap:butt;stroke-linejoin:miter;stroke-miterlimit:4;stroke-dasharray:none;stroke-dashoffset:0;stroke-opacity:1;paint-order:normal"
       d="m 198.30552,20.655496 v 8.00202 m -16.26502,0 v -8.00202 m 0,15.764779 v -7.76276 h 16.26502 v 0 7.76276"
       inkscape:connector-curvature="0" />
    <path
       style="opacity:1;fill:none;fill-opacity:1;stroke:#ff0000;stroke-width:0.26458332;stroke-linecap:butt;stroke-linejoin:miter;stroke-miterlimit:4;stroke-dasharray:none;stroke-dashoffset:0;stroke-opacity:1;paint-order:normal"
       d="m 176.04479,116.60024 v 7.76276 h -16.26502 v 0 -7.76276"
       id="path913-6-0-0"
       inkscape:connector-curvature="0" />
    <path
       style="opacity:1;fill:none;fill-opacity:1;stroke:#ff0000;stroke-width:0.26458332;stroke-linecap:butt;stroke-linejoin:miter;stroke-miterlimit:4;stroke-dasharray:none;stroke-dashoffset:0;stroke-opacity:1;paint-order:normal"
       d="m 198.30553,116.60023 v 7.76276 H 182.0405 v 0 -7.76276"
       id="path913-3-6-9"
       inkscape:connector-curvature="0" />
    <path
       id="path6594-9-95-744-17-3"
       style="opacity:1;fill:none;fill-opacity:1;stroke:#ff0000;stroke-width:0.26458332;stroke-linecap:butt;stroke-linejoin:miter;stroke-miterlimit:4;stroke-dasharray:none;stroke-dashoffset:0;stroke-opacity:1;paint-order:normal"
       d="m 176.04479,100.09598 v 8.00202 m -16.26502,0 v -8.00202 m 0,16.00404 V 108.098 h 16.26502 v 8.00202"
       inkscape:connector-curvature="0" />
    <path
       id="path6594-9-95-744-26-6"
       style="opacity:1;fill:none;fill-opacity:1;stroke:#ff0000;stroke-width:0.26458332;stroke-linecap:butt;stroke-linejoin:miter;stroke-miterlimit:4;stroke-dasharray:none;stroke-dashoffset:0;stroke-opacity:1;paint-order:normal"
       d="m 198.30553,100.09598 v 8.00202 m -16.26503,0 v -8.00202 m 0,16.00403 v -8.00202 h 16.26503 v 8.00202"
       inkscape:connector-curvature="0" />
    <path
       inkscape:connector-curvature="0"
       id="path6592-2-4-54-06-0"
       d="m 159.77977,83.330765 v -7.76276 h 16.26502 v 0 7.76276"
       style="opacity:1;fill:none;fill-opacity:1;stroke:#ff0000;stroke-width:0.26458332;stroke-linecap:butt;stroke-linejoin:miter;stroke-miterlimit:4;stroke-dasharray:none;stroke-dashoffset:0;stroke-opacity:1;paint-order:normal" />
    <path
       id="path6594-9-95-744-15-6"
       style="opacity:1;fill:none;fill-opacity:1;stroke:#ff0000;stroke-width:0.26458332;stroke-linecap:butt;stroke-linejoin:miter;stroke-miterlimit:4;stroke-dasharray:none;stroke-dashoffset:0;stroke-opacity:1;paint-order:normal"
       d="m 176.04479,83.830985 v 8.00202 m -16.26502,0 v -8.00202 m 0,15.76478 v -7.76276 h 16.26502 v 0 7.76276"
       inkscape:connector-curvature="0" />
    <path
       inkscape:connector-curvature="0"
       id="path6592-2-4-54-90-2"
       d="M 182.0405,83.33076 V 75.568 h 16.26503 v 0 7.76276"
       style="opacity:1;fill:none;fill-opacity:1;stroke:#ff0000;stroke-width:0.26458332;stroke-linecap:butt;stroke-linejoin:miter;stroke-miterlimit:4;stroke-dasharray:none;stroke-dashoffset:0;stroke-opacity:1;paint-order:normal" />
    <path
       id="path6594-9-95-744-91-6"
       style="opacity:1;fill:none;fill-opacity:1;stroke:#ff0000;stroke-width:0.26458332;stroke-linecap:butt;stroke-linejoin:miter;stroke-miterlimit:4;stroke-dasharray:none;stroke-dashoffset:0;stroke-opacity:1;paint-order:normal"
       d="M 198.30553,83.83098 V 91.833 m -16.26503,0 v -8.00202 m 0,15.76478 V 91.833 h 16.26503 v 0 7.76276"
       inkscape:connector-curvature="0" />
    <path
       style="opacity:1;fill:none;fill-opacity:1;stroke:#ff0000;stroke-width:0.26458332;stroke-linecap:butt;stroke-linejoin:miter;stroke-miterlimit:4;stroke-dasharray:none;stroke-dashoffset:0;stroke-opacity:1;paint-order:normal"
       d="m 176.04479,179.77576 v 7.76276 h -16.26502 v 0 -7.76276"
       id="path913-6-0-3-1"
       inkscape:connector-curvature="0" />
    <path
       style="opacity:1;fill:none;fill-opacity:1;stroke:#ff0000;stroke-width:0.26458332;stroke-linecap:butt;stroke-linejoin:miter;stroke-miterlimit:4;stroke-dasharray:none;stroke-dashoffset:0;stroke-opacity:1;paint-order:normal"
       d="m 198.30551,179.77577 v 7.76276 h -16.26502 v 0 -7.76276"
       id="path913-3-6-2-8"
       inkscape:connector-curvature="0" />
    <path
       id="path6594-9-95-744-2-7"
       style="opacity:1;fill:none;fill-opacity:1;stroke:#ff0000;stroke-width:0.26458332;stroke-linecap:butt;stroke-linejoin:miter;stroke-miterlimit:4;stroke-dasharray:none;stroke-dashoffset:0;stroke-opacity:1;paint-order:normal"
       d="m 176.04477,163.27151 v 8.00202 m -16.26502,0 v -8.00202 m 2e-5,16.00403 v -8.00202 h 16.26502 v 8.00202"
       inkscape:connector-curvature="0" />
    <path
       id="path6594-9-95-744-9-9"
       style="opacity:1;fill:none;fill-opacity:1;stroke:#ff0000;stroke-width:0.26458332;stroke-linecap:butt;stroke-linejoin:miter;stroke-miterlimit:4;stroke-dasharray:none;stroke-dashoffset:0;stroke-opacity:1;paint-order:normal"
       d="m 198.30551,163.2715 v 8.00202 m -16.26502,0 v -8.00202 m 0,16.00405 v -8.00202 h 16.26502 v 8.00202"
       inkscape:connector-curvature="0" />
    <path
       inkscape:connector-curvature="0"
       id="path6592-2-4-54-66-2"
       d="m 159.77975,146.50629 v -7.76276 h 16.26502 v 0 7.76276"
       style="opacity:1;fill:none;fill-opacity:1;stroke:#ff0000;stroke-width:0.26458332;stroke-linecap:butt;stroke-linejoin:miter;stroke-miterlimit:4;stroke-dasharray:none;stroke-dashoffset:0;stroke-opacity:1;paint-order:normal" />
    <path
       id="path6594-9-95-744-4-0"
       style="opacity:1;fill:none;fill-opacity:1;stroke:#ff0000;stroke-width:0.26458332;stroke-linecap:butt;stroke-linejoin:miter;stroke-miterlimit:4;stroke-dasharray:none;stroke-dashoffset:0;stroke-opacity:1;paint-order:normal"
       d="m 176.04477,147.00651 v 8.00202 m -16.26502,0 v -8.00202 m 0,15.76478 v -7.76276 h 16.26502 v 0 7.76276"
       inkscape:connector-curvature="0" />
    <path
       inkscape:connector-curvature="0"
       id="path6592-2-4-54-5-2"
       d="m 182.04049,146.50628 v -7.76276 h 16.26502 v 0 7.76276"
       style="opacity:1;fill:none;fill-opacity:1;stroke:#ff0000;stroke-width:0.26458332;stroke-linecap:butt;stroke-linejoin:miter;stroke-miterlimit:4;stroke-dasharray:none;stroke-dashoffset:0;stroke-opacity:1;paint-order:normal" />
    <path
       id="path6594-9-95-744-0-3"
       style="opacity:1;fill:none;fill-opacity:1;stroke:#ff0000;stroke-width:0.26458332;stroke-linecap:butt;stroke-linejoin:miter;stroke-miterlimit:4;stroke-dasharray:none;stroke-dashoffset:0;stroke-opacity:1;paint-order:normal"
       d="m 198.30551,147.0065 v 8.00202 m -16.26502,0 v -8.00202 m 0,15.76478 v -7.76276 h 16.26502 v 0 7.76276"
       inkscape:connector-curvature="0" />
    <path
       inkscape:connector-curvature="0"
       id="path6592-2-4-54-6-7"
       d="m 159.77981,209.68201 v -7.76276 h 16.26502 v 0 7.76276"
       style="opacity:1;fill:none;fill-opacity:1;stroke:#ff0000;stroke-width:0.26458332;stroke-linecap:butt;stroke-linejoin:miter;stroke-miterlimit:4;stroke-dasharray:none;stroke-dashoffset:0;stroke-opacity:1;paint-order:normal" />
    <path
       inkscape:connector-curvature="0"
       id="path6592-2-4-54-3-5"
       d="m 182.04054,209.68201 v -7.76276 h 16.26502 v 0 7.76276"
       style="opacity:1;fill:none;fill-opacity:1;stroke:#ff0000;stroke-width:0.26458332;stroke-linecap:butt;stroke-linejoin:miter;stroke-miterlimit:4;stroke-dasharray:none;stroke-dashoffset:0;stroke-opacity:1;paint-order:normal" />
    <path
       style="opacity:1;fill:none;fill-opacity:1;stroke:#ff0000;stroke-width:0.26458332;stroke-linecap:butt;stroke-linejoin:miter;stroke-miterlimit:4;stroke-dasharray:none;stroke-dashoffset:0;stroke-opacity:1;paint-order:normal"
       d="m 176.04485,242.95149 v 7.76276 h -16.26503 v 0 -7.76276"
       id="path913-2-3-9"
       inkscape:connector-curvature="0" />
    <path
       style="opacity:1;fill:none;fill-opacity:1;stroke:#ff0000;stroke-width:0.26458332;stroke-linecap:butt;stroke-linejoin:miter;stroke-miterlimit:4;stroke-dasharray:none;stroke-dashoffset:0;stroke-opacity:1;paint-order:normal"
       d="m 198.30555,242.95147 v 7.76276 h -16.26503 v 0 -7.76276"
       id="path913-2-7-2"
       inkscape:connector-curvature="0" />
    <path
       id="path6592-2-4-54-2"
       style="opacity:1;fill:none;fill-opacity:1;stroke:#ff0000;stroke-width:0.26458332;stroke-linecap:butt;stroke-linejoin:miter;stroke-miterlimit:4;stroke-dasharray:none;stroke-dashoffset:0;stroke-opacity:1;paint-order:normal"
       d="m 159.77981,225.94701 v -7.76276 h 16.26502 v 0 7.76276 m 0,-15.76478 v 8.00202 m -16.26502,0 v -8.00202"
       inkscape:connector-curvature="0" />
    <path
       id="path6594-9-95-744-8"
       style="opacity:1;fill:none;fill-opacity:1;stroke:#ff0000;stroke-width:0.26458332;stroke-linecap:butt;stroke-linejoin:miter;stroke-miterlimit:4;stroke-dasharray:none;stroke-dashoffset:0;stroke-opacity:1;paint-order:normal"
       d="m 176.04483,226.44723 v 8.00202 m -16.26502,0 v -8.00202 m 1e-5,16.00404 v -8.00202 h 16.26503 v 8.00202"
       inkscape:connector-curvature="0" />
    <path
       id="path6592-2-4-54-0-9"
       style="opacity:1;fill:none;fill-opacity:1;stroke:#ff0000;stroke-width:0.26458332;stroke-linecap:butt;stroke-linejoin:miter;stroke-miterlimit:4;stroke-dasharray:none;stroke-dashoffset:0;stroke-opacity:1;paint-order:normal"
       d="m 182.04054,225.94701 v -7.76276 h 16.26502 v 0 7.76276 m 0,-15.76478 v 8.00202 m -16.26502,0 v -8.00202"
       inkscape:connector-curvature="0" />
    <path
       id="path6594-9-95-744-7-7"
       style="opacity:1;fill:none;fill-opacity:1;stroke:#ff0000;stroke-width:0.26458332;stroke-linecap:butt;stroke-linejoin:miter;stroke-miterlimit:4;stroke-dasharray:none;stroke-dashoffset:0;stroke-opacity:1;paint-order:normal"
       d="m 198.30556,226.44723 v 8.00202 m -16.26502,0 v -8.00202 m -2e-5,16.00402 v -8.00202 h 16.26503 v 8.00202"
       inkscape:connector-curvature="0" />
    <path
       style="opacity:1;fill:none;fill-opacity:1;stroke:#ff0000;stroke-width:0.26458332;stroke-linecap:butt;stroke-linejoin:miter;stroke-miterlimit:4;stroke-dasharray:none;stroke-dashoffset:0;stroke-opacity:1;paint-order:normal"
       d="m 96.456107,250.71427 h -7.76276 v -16.26503 0 h 7.76276"
       id="path913-2-3-2-3"
       inkscape:connector-curvature="0" />
    <path
       style="opacity:1;fill:none;fill-opacity:1;stroke:#ff0000;stroke-width:0.26458332;stroke-linecap:butt;stroke-linejoin:miter;stroke-miterlimit:4;stroke-dasharray:none;stroke-dashoffset:0;stroke-opacity:1;paint-order:normal"
       d="m 30.95743,250.38953 h -7.76276 v -16.26503 0 h 7.76276"
       id="path913-2-7-5-6"
       inkscape:connector-curvature="0" />
    <path
       id="path6594-9-95-1"
       style="opacity:1;fill:none;fill-opacity:1;stroke:#ff0000;stroke-width:0.26458332;stroke-linecap:butt;stroke-linejoin:miter;stroke-miterlimit:4;stroke-dasharray:none;stroke-dashoffset:0;stroke-opacity:1;paint-order:normal"
       d="m 112.96116,250.71405 h -8.00202 m 0,-16.26503 h 8.00202 m -16.004833,2.2e-4 h 8.002023 v 16.26503 h -8.002023"
       inkscape:connector-curvature="0" />
    <path
       inkscape:connector-curvature="0"
       id="path6592-2-4-4-2"
       d="m 129.72638,234.44902 h 7.76276 v 16.26503 0 h -7.76276"
       style="opacity:1;fill:none;fill-opacity:1;stroke:#ff0000;stroke-width:0.26458332;stroke-linecap:butt;stroke-linejoin:miter;stroke-miterlimit:4;stroke-dasharray:none;stroke-dashoffset:0;stroke-opacity:1;paint-order:normal" />
    <path
       id="path6594-9-95-7-9"
       style="opacity:1;fill:none;fill-opacity:1;stroke:#ff0000;stroke-width:0.26458332;stroke-linecap:butt;stroke-linejoin:miter;stroke-miterlimit:4;stroke-dasharray:none;stroke-dashoffset:0;stroke-opacity:1;paint-order:normal"
       d="m 129.22616,250.71405 h -8.00202 m 0,-16.26503 h 8.00202 m -15.76478,0 h 7.76276 v 16.26503 0 h -7.76276"
       inkscape:connector-curvature="0" />
    <path
       id="path6594-9-95-6-3"
       style="opacity:1;fill:none;fill-opacity:1;stroke:#ff0000;stroke-width:0.26458332;stroke-linecap:butt;stroke-linejoin:miter;stroke-miterlimit:4;stroke-dasharray:none;stroke-dashoffset:0;stroke-opacity:1;paint-order:normal"
       d="m 47.46296,250.38925 h -8.00202 m 0,-16.26503 h 8.00202 m -16.00531,2.8e-4 h 8.00202 v 16.26503 h -8.00202"
       inkscape:connector-curvature="0" />
    <path
       inkscape:connector-curvature="0"
       id="path6592-2-4-3-1"
       d="m 64.22818,234.12422 h 7.76276 v 16.26503 0 h -7.76276"
       style="opacity:1;fill:none;fill-opacity:1;stroke:#ff0000;stroke-width:0.26458332;stroke-linecap:butt;stroke-linejoin:miter;stroke-miterlimit:4;stroke-dasharray:none;stroke-dashoffset:0;stroke-opacity:1;paint-order:normal" />
    <path
       id="path6594-9-95-74-9"
       style="opacity:1;fill:none;fill-opacity:1;stroke:#ff0000;stroke-width:0.26458332;stroke-linecap:butt;stroke-linejoin:miter;stroke-miterlimit:4;stroke-dasharray:none;stroke-dashoffset:0;stroke-opacity:1;paint-order:normal"
       d="m 63.72796,250.38925 h -8.00202 m 0,-16.26503 h 8.00202 m -15.76478,0 h 7.76276 v 16.26503 0 h -7.76276"
       inkscape:connector-curvature="0" />
    <path
       inkscape:connector-curvature="0"
       id="path2006-5-4"
       d="m 12.405071,207.34491 6.88e-4,11.42456 9.075467,2.6e-4 9.075468,-0.001 h 6.577034 c 0.885944,0 1.2026,-0.39405 0.984435,-1.27603 l -1.198547,-5.15264 c -0.218165,-0.88198 0.09849,-1.29553 0.984435,-1.29553 h 13.264677 c 0.885944,0 1.2026,0.41355 0.984438,1.29553 l -1.198547,5.15264 c -0.218168,0.88198 0.09849,1.27592 0.984432,1.27603 l 6.578389,7.9e-4 8.201715,-1.1e-4"
       style="display:inline;fill:none;stroke:#ff0000;stroke-width:0.26499999;stroke-linecap:butt;stroke-linejoin:miter;stroke-miterlimit:4;stroke-dasharray:none;stroke-opacity:1"
       sodipodi:nodetypes="ccccsccssccccc" />
    <path
       inkscape:connector-curvature="0"
       style="display:inline;fill:none;stroke:#ff0000;stroke-width:0.26499999;stroke-linecap:butt;stroke-linejoin:miter;stroke-miterlimit:4;stroke-dasharray:none;stroke-opacity:1"
       d="m 66.719184,154.50381 -8.275741,-5.3e-4 -6.5044,-1.3e-4 c -0.885944,2.7e-4 -1.2026,0.41356 -0.984438,1.29555 l 1.198547,5.15264 c 0.218168,0.88198 -0.09849,1.29552 -0.984432,1.29552 H 37.904043 c -0.885944,0 -1.2026,-0.41354 -0.984438,-1.29552 l 1.19855,-5.15264 c 0.218165,-0.88199 -0.09849,-1.29553 -0.984435,-1.29553 l -6.502816,-2.9e-4 -18.226234,9e-5 -5.03e-4,18.23029 1.59e-4,6.49317 c 2.64e-4,0.88595 0.413559,1.2026 1.295541,0.98444 l 5.152641,-1.19855 c 0.881982,-0.21816 1.295528,0.0985 1.295528,0.98444 -1e-6,4.42156 -1e-6,8.84311 0,13.26467 0,0.88594 -0.413546,1.2026 -1.295528,0.98443 l -5.152641,-1.19855 c -0.881982,-0.21816 -1.295528,0.0985 -1.295528,0.98444 l 3.18e-4,6.50277 3.96e-4,6.31017"
       id="path6534-4-7"
       sodipodi:nodetypes="cccccsscccccccccssccccc" />
    <path
       inkscape:connector-curvature="0"
       style="display:inline;fill:none;stroke:#ff0000;stroke-width:0.26499999;stroke-linecap:butt;stroke-linejoin:miter;stroke-miterlimit:4;stroke-dasharray:none;stroke-opacity:1"
       d="m 67.218845,154.50381 73.451755,5e-5 1e-4,18.14238 -0.0168,6.58018 c -0.0105,0.88588 0.41356,1.2026 1.29554,0.98443 l 5.15265,-1.19854 c 0.88198,-0.21817 1.29552,0.0985 1.29552,0.98443 v 13.26468 c 0,0.88594 -0.41354,1.2026 -1.29552,0.98442 l -5.15265,-1.19853 c -0.88198,-0.21817 -1.29552,0.0985 -1.29552,0.98443 l 0.0177,6.56451 2e-5,18.17245 -73.452946,5.2e-4"
       id="path6536-65-8"
       sodipodi:nodetypes="ccccccsscccccc" />
    <path
       style="display:inline;opacity:1;fill:none;fill-opacity:1;stroke:#ff0000;stroke-width:0.26458332;stroke-linecap:butt;stroke-linejoin:miter;stroke-miterlimit:4;stroke-dasharray:none;stroke-dashoffset:0;stroke-opacity:1;paint-order:normal"
       d="m 133.21229,186.88739 v 24.42264 H 79.112292 v -16.44 h 4.749376 l -1.29e-4,-7.98286"
       id="path1567-5"
       inkscape:connector-curvature="0"
       sodipodi:nodetypes="cccccc" />
    <path
       style="display:inline;opacity:1;fill:none;fill-opacity:1;stroke:#ff0000;stroke-width:0.26458332;stroke-linecap:butt;stroke-linejoin:miter;stroke-miterlimit:4;stroke-dasharray:none;stroke-dashoffset:0;stroke-opacity:1;paint-order:normal"
       d="m 83.861531,186.38747 -2.65e-4,-24.42244 v 0 h 49.351144 v 24.42264"
       id="path1563-0"
       inkscape:connector-curvature="0" />
    <path
       inkscape:connector-curvature="0"
       id="path2006-2-3"
       d="m 12.405071,136.28989 6.88e-4,11.42456 9.075467,2.6e-4 9.075468,-0.001 h 6.577034 c 0.885944,0 1.2026,-0.39405 0.984435,-1.27603 l -1.198547,-5.15263 c -0.218165,-0.88199 0.09849,-1.29554 0.984435,-1.29554 h 13.264677 c 0.885944,0 1.2026,0.41355 0.984438,1.29554 l -1.198547,5.15263 c -0.218168,0.88198 0.09849,1.27593 0.984432,1.27603 l 6.578389,8e-4 8.201715,-1.1e-4"
       style="display:inline;fill:none;stroke:#ff0000;stroke-width:0.26499999;stroke-linecap:butt;stroke-linejoin:miter;stroke-miterlimit:4;stroke-dasharray:none;stroke-opacity:1"
       sodipodi:nodetypes="ccccsccssccccc" />
    <path
       inkscape:connector-curvature="0"
       style="display:inline;fill:none;stroke:#ff0000;stroke-width:0.26499999;stroke-linecap:butt;stroke-linejoin:miter;stroke-miterlimit:4;stroke-dasharray:none;stroke-opacity:1"
       d="m 66.719184,83.44879 -8.275741,-5.29e-4 -6.5044,-1.23e-4 c -0.885944,2.64e-4 -1.2026,0.413559 -0.984438,1.295541 l 1.198547,5.152641 c 0.218168,0.881982 -0.09849,1.295528 -0.984432,1.295528 H 37.904043 c -0.885944,0 -1.2026,-0.413546 -0.984438,-1.295528 l 1.19855,-5.152641 C 38.33632,83.861697 38.019665,83.44815 37.13372,83.44815 l -6.502816,-2.91e-4 -18.226234,9.8e-5 -5.03e-4,18.230293 1.59e-4,6.49316 c 2.64e-4,0.88595 0.413559,1.2026 1.295541,0.98444 l 5.152641,-1.19855 c 0.881982,-0.21816 1.295528,0.0985 1.295528,0.98444 -1e-6,4.42156 -1e-6,8.84311 0,13.26467 0,0.88594 -0.413546,1.2026 -1.295528,0.98443 l -5.152641,-1.19855 c -0.881982,-0.21816 -1.295528,0.0985 -1.295528,0.98444 l 3.18e-4,6.50277 3.96e-4,6.31017"
       id="path6534-0-6"
       sodipodi:nodetypes="cccccsscccccccccssccccc" />
    <path
       inkscape:connector-curvature="0"
       style="display:inline;fill:none;stroke:#ff0000;stroke-width:0.26499999;stroke-linecap:butt;stroke-linejoin:miter;stroke-miterlimit:4;stroke-dasharray:none;stroke-opacity:1"
       d="m 67.218845,83.44879 73.451755,5.3e-5 1e-4,18.142377 -0.0168,6.58018 c -0.0105,0.88588 0.41356,1.2026 1.29554,0.98443 l 5.15265,-1.19854 c 0.88198,-0.21817 1.29552,0.0985 1.29552,0.98443 v 13.26468 c 0,0.88594 -0.41354,1.2026 -1.29552,0.98443 l -5.15265,-1.19854 c -0.88198,-0.21817 -1.29552,0.0985 -1.29552,0.98443 l 0.0177,6.56452 2e-5,18.17244 -73.452946,5.3e-4"
       id="path6536-3-1"
       sodipodi:nodetypes="ccccccsscccccc" />
    <path
       style="display:inline;opacity:1;fill:none;fill-opacity:1;stroke:#ff0000;stroke-width:0.26458332;stroke-linecap:butt;stroke-linejoin:miter;stroke-miterlimit:4;stroke-dasharray:none;stroke-dashoffset:0;stroke-opacity:1;paint-order:normal"
       d="m 133.21229,115.83263 v 24.42239 l -54.099998,-1e-5 v -16.44 h 4.749376 l -1.27e-4,-7.98247"
       id="path1574-6"
       inkscape:connector-curvature="0"
       sodipodi:nodetypes="cccccc" />
    <path
       style="display:inline;opacity:1;fill:none;fill-opacity:1;stroke:#ff0000;stroke-width:0.26458332;stroke-linecap:butt;stroke-linejoin:miter;stroke-miterlimit:4;stroke-dasharray:none;stroke-dashoffset:0;stroke-opacity:1;paint-order:normal"
       d="m 83.861533,115.33232 -2.64e-4,-24.422308 v 0 h 49.351151 l -1e-5,24.422388"
       id="path1570-3"
       inkscape:connector-curvature="0" />
    <path
       inkscape:connector-curvature="0"
       id="path2006-20"
       d="m 12.405071,65.234881 6.88e-4,11.424555 9.075467,2.64e-4 9.075468,-0.0013 h 6.577034 c 0.885944,0 1.2026,-0.394049 0.984435,-1.27603 l -1.198547,-5.152636 c -0.218165,-0.881983 0.09849,-1.295532 0.984435,-1.295532 h 13.264677 c 0.885944,0 1.2026,0.413549 0.984438,1.295532 l -1.198547,5.152636 c -0.218168,0.881981 0.09849,1.275924 0.984432,1.27603 l 6.578389,7.94e-4 8.201715,-1.09e-4"
       style="display:inline;fill:none;stroke:#ff0000;stroke-width:0.26499999;stroke-linecap:butt;stroke-linejoin:miter;stroke-miterlimit:4;stroke-dasharray:none;stroke-opacity:1"
       sodipodi:nodetypes="ccccsccssccccc" />
    <path
       inkscape:connector-curvature="0"
       style="display:inline;fill:none;stroke:#ff0000;stroke-width:0.26499999;stroke-linecap:butt;stroke-linejoin:miter;stroke-miterlimit:4;stroke-dasharray:none;stroke-opacity:1"
       d="m 66.719184,12.393777 -8.275741,-5.29e-4 -6.5044,-1.23e-4 c -0.885944,2.64e-4 -1.2026,0.413559 -0.984438,1.295541 l 1.198547,5.152641 c 0.218168,0.881982 -0.09849,1.295528 -0.984432,1.295528 H 37.904043 c -0.885944,0 -1.2026,-0.413546 -0.984438,-1.295528 l 1.19855,-5.152641 c 0.218165,-0.881982 -0.09849,-1.295529 -0.984435,-1.295529 l -6.502816,-2.91e-4 -18.226234,9.8e-5 -5.03e-4,18.230291 1.59e-4,6.493164 c 2.64e-4,0.885952 0.413559,1.2026 1.295541,0.98444 l 5.152641,-1.198549 c 0.881982,-0.21816 1.295528,0.0985 1.295528,0.98444 -1e-6,4.421556 -1e-6,8.843111 0,13.264666 0,0.885942 -0.413546,1.2026 -1.295528,0.98443 l -5.152641,-1.198549 c -0.881982,-0.21816 -1.295528,0.0985 -1.295528,0.98444 l 3.18e-4,6.502771 3.96e-4,6.310169"
       id="path6534-6"
       sodipodi:nodetypes="cccccsscccccccccssccccc" />
    <path
       inkscape:connector-curvature="0"
       style="display:inline;fill:none;stroke:#ff0000;stroke-width:0.26499999;stroke-linecap:butt;stroke-linejoin:miter;stroke-miterlimit:4;stroke-dasharray:none;stroke-opacity:1"
       d="m 67.218845,12.393777 73.451755,5.3e-5 1e-4,18.142381 -0.0168,6.580175 c -0.0105,0.88588 0.41356,1.2026 1.29554,0.984432 l 5.15265,-1.198541 c 0.88198,-0.21817 1.29552,0.0985 1.29552,0.98443 v 13.264679 c 0,0.885941 -0.41354,1.2026 -1.29552,0.984429 l -5.15265,-1.198538 c -0.88198,-0.21817 -1.29552,0.0985 -1.29552,0.98443 l 0.0177,6.564518 2e-5,18.172441 -73.452946,5.29e-4"
       id="path6536-1"
       sodipodi:nodetypes="ccccccsscccccc" />
    <path
       style="display:inline;opacity:1;fill:none;fill-opacity:1;stroke:#ff0000;stroke-width:0.26458332;stroke-linecap:butt;stroke-linejoin:miter;stroke-miterlimit:4;stroke-dasharray:none;stroke-dashoffset:0;stroke-opacity:1;paint-order:normal"
       d="M 133.21229,44.777617 V 69.200003 L 79.112292,69.2 c 0,-5.48 0,-10.959999 0,-16.439999 h 4.749376 l -1.27e-4,-7.982466"
       id="path1581-5"
       inkscape:connector-curvature="0"
       sodipodi:nodetypes="cccccc" />
    <path
       style="display:inline;opacity:1;fill:none;fill-opacity:1;stroke:#ff0000;stroke-width:0.26458332;stroke-linecap:butt;stroke-linejoin:miter;stroke-miterlimit:4;stroke-dasharray:none;stroke-dashoffset:0;stroke-opacity:1;paint-order:normal"
       d="M 83.861533,44.277306 83.861269,19.855 v 0 h 49.351151 l -1e-5,24.422385"
       id="path1577-4"
       inkscape:connector-curvature="0" />
  </g>
</svg>
