<?xml version="1.0" encoding="UTF-8" standalone="no"?>
<!-- Created with Inkscape (http://www.inkscape.org/) -->

<svg
   xmlns:dc="http://purl.org/dc/elements/1.1/"
   xmlns:cc="http://creativecommons.org/ns#"
   xmlns:rdf="http://www.w3.org/1999/02/22-rdf-syntax-ns#"
   xmlns:svg="http://www.w3.org/2000/svg"
   xmlns="http://www.w3.org/2000/svg"
   xmlns:sodipodi="http://sodipodi.sourceforge.net/DTD/sodipodi-0.dtd"
   xmlns:inkscape="http://www.inkscape.org/namespaces/inkscape"
   width="8.25in"
   height="10.5in"
   viewBox="0 0 209.54999 266.70001"
   version="1.1"
   id="svg1288"
   inkscape:version="0.92.5 (0.92.5+68)"
   sodipodi:docname="punchout-5-cut.svg"
   inkscape:export-filename="./punchout-5-cut.png"
   inkscape:export-xdpi="300"
   inkscape:export-ydpi="300">
  <defs
     id="defs1282">
    <inkscape:path-effect
       effect="spiro"
       id="path-effect2802"
       is_visible="true" />
  </defs>
  <sodipodi:namedview
     id="base"
     pagecolor="#ffffff"
     bordercolor="#666666"
     borderopacity="1.0"
     inkscape:pageopacity="0.0"
     inkscape:pageshadow="2"
     inkscape:zoom="0.67213393"
     inkscape:cx="92.195454"
     inkscape:cy="601.49855"
     inkscape:document-units="mm"
     inkscape:current-layer="layer3"
     showgrid="false"
     units="in"
     inkscape:window-width="1875"
     inkscape:window-height="1056"
     inkscape:window-x="45"
     inkscape:window-y="24"
     inkscape:window-maximized="1"
     inkscape:snap-global="false">
    <inkscape:grid
       type="xygrid"
       id="grid1027" />
  </sodipodi:namedview>
  <metadata
     id="metadata1285">
    <rdf:RDF>
      <cc:Work
         rdf:about="">
        <dc:format>image/svg+xml</dc:format>
        <dc:type
           rdf:resource="http://purl.org/dc/dcmitype/StillImage" />
        <dc:title></dc:title>
      </cc:Work>
    </rdf:RDF>
  </metadata>
  <g
     inkscape:groupmode="layer"
     id="layer3"
     inkscape:label="cut"
     style="display:inline">
    <path
       id="path1134-3-1-6"
       style="display:inline;opacity:1;fill:none;fill-opacity:1;stroke:#ff0000;stroke-width:0.26458332;stroke-linecap:butt;stroke-linejoin:miter;stroke-miterlimit:4;stroke-dasharray:none;stroke-dashoffset:0;stroke-opacity:1;paint-order:stroke fill markers"
       d="m 76.283459,11.990516 v 0 0 h 64.265231 l 2.6e-4,12.297873"
       inkscape:connector-curvature="0"
       sodipodi:nodetypes="ccccc" />
    <path
       style="display:inline;opacity:1;fill:none;fill-opacity:1;stroke:#ff0000;stroke-width:0.26458332;stroke-linecap:butt;stroke-linejoin:miter;stroke-miterlimit:4;stroke-dasharray:none;stroke-dashoffset:0;stroke-opacity:1;paint-order:stroke fill markers"
       d="m 12.018516,152.81658 -3.7e-4,-12.29752 v 0 0 h 47.92869"
       id="path1297-7"
       inkscape:connector-curvature="0" />
    <path
       style="display:inline;opacity:1;fill:none;fill-opacity:1;stroke:#ff0000;stroke-width:0.26458332;stroke-linecap:butt;stroke-linejoin:miter;stroke-miterlimit:4;stroke-dasharray:none;stroke-dashoffset:0;stroke-opacity:1;paint-order:stroke fill markers"
       d="M 59.946949,204.78335 H 12.018135 l -2.04e-4,-18.25496 5.29e-4,-6.47415 c 0,-0.88593 0.413541,-1.2026 1.295522,-0.98443 l 5.152649,1.19854 c 0.881981,0.21817 1.29553,-0.0985 1.29553,-0.98443 v -13.26468 c 0,-0.88593 -0.413549,-1.2026 -1.29553,-0.98443 l -5.152649,1.19854 c -0.881981,0.21817 -1.295575,-0.0985 -1.29554,-0.98443 l 2.46e-4,-6.49985 -1.57e-4,-5.43226"
       id="rect5794-7-7-6-6-5"
       inkscape:connector-curvature="0" />
    <path
       inkscape:connector-curvature="0"
       style="display:inline;fill:none;stroke:#ff0000;stroke-width:0.26458332;stroke-linecap:butt;stroke-linejoin:miter;stroke-miterlimit:4;stroke-dasharray:none;stroke-opacity:1"
       d="m 140.54891,153.31665 1.2e-4,5.35105 -0.0101,6.58121 c -0.006,0.88592 0.41356,1.2026 1.29554,0.98444 l 5.15265,-1.19855 c 0.88198,-0.21816 1.29553,0.0985 1.29553,0.98443 v 13.26468 c 0,0.88594 -0.41355,1.2026 -1.29553,0.98444 l -5.15265,-1.19855 c -0.88198,-0.21817 -1.29552,0.0985 -1.29552,0.98443 l 0.01,6.56055 -2e-4,18.16857 H 92.433377"
       id="path1140-61-3"
       sodipodi:nodetypes="cccccsscccccc" />
    <path
       id="rect5794-7-7-6-9-5"
       style="display:inline;opacity:1;fill:none;fill-opacity:1;stroke:#ff0000;stroke-width:0.26458332;stroke-linecap:butt;stroke-linejoin:miter;stroke-miterlimit:4;stroke-dasharray:none;stroke-dashoffset:0;stroke-opacity:1;paint-order:stroke fill markers"
       d="M 91.933027,204.78335 H 76.283375"
       inkscape:connector-curvature="0"
       sodipodi:nodetypes="cc" />
    <path
       id="path1140-7-0-6"
       style="display:inline;fill:none;stroke:#ff0000;stroke-width:0.26458332;stroke-linecap:butt;stroke-linejoin:miter;stroke-miterlimit:4;stroke-dasharray:none;stroke-opacity:1"
       d="m 76.283399,140.51906 v 0 0 h 15.649508 m -31.485626,0 h 15.836104 l 4e-4,18.14864 -0.0101,6.58121 c -0.006,0.88592 0.41356,1.2026 1.29554,0.98444 l 5.15265,-1.19855 c 0.88198,-0.21816 1.29553,0.0985 1.29553,0.98443 v 13.26468 c 0,0.88594 -0.41355,1.2026 -1.29553,0.98444 l -5.15265,-1.19855 c -0.88198,-0.21817 -1.29552,0.0985 -1.29552,0.98443 l 0.01,6.56055 -2e-4,18.16857 H 60.447299"
       inkscape:connector-curvature="0"
       sodipodi:nodetypes="ccccccccccsscccccc" />
    <path
       style="display:inline;opacity:1;fill:none;fill-opacity:1;stroke:#ff0000;stroke-width:0.26458332;stroke-linecap:butt;stroke-linejoin:miter;stroke-miterlimit:4;stroke-dasharray:none;stroke-dashoffset:0;stroke-opacity:1;paint-order:stroke fill markers"
       d="m 12.018596,24.288032 -3.7e-4,-12.297516 v 0 0 h 64.265238 l 5.3e-4,18.148637 -0.01011,6.581211 c -0.006,0.885923 0.413559,1.2026 1.29554,0.984443 l 5.152649,-1.198554 c 0.881981,-0.218165 1.29553,0.0985 1.29553,0.984432 v 13.264679 c 0,0.885939 -0.413549,1.2026 -1.29553,0.984443 l -5.152649,-1.198554 c -0.881981,-0.218168 -1.295519,0.0985 -1.295519,0.984432 l 0.01,6.56054 -1.98e-4,18.168577"
       id="path1287-2"
       inkscape:connector-curvature="0"
       sodipodi:nodetypes="cccccccccssccccc" />
    <path
       style="display:inline;opacity:1;fill:none;fill-opacity:1;stroke:#ff0000;stroke-width:0.26458332;stroke-linecap:butt;stroke-linejoin:miter;stroke-miterlimit:4;stroke-dasharray:none;stroke-dashoffset:0;stroke-opacity:1;paint-order:stroke fill markers"
       d="m 12.018215,76.2548 -2.04e-4,-18.254956 5.29e-4,-6.474159 c 0,-0.885928 0.413541,-1.2026 1.295522,-0.984427 l 5.152649,1.198547 c 0.881981,0.218162 1.29553,-0.0985 1.29553,-0.984438 V 37.490685 c 0,-0.885928 -0.413549,-1.2026 -1.29553,-0.98443 l -5.152649,1.19855 c -0.881981,0.218162 -1.295575,-0.0985 -1.29554,-0.984438 l 2.46e-4,-6.499847 -1.57e-4,-5.432258"
       id="path1134-3-3-9"
       inkscape:connector-curvature="0" />
    <path
       style="display:inline;opacity:1;fill:none;fill-opacity:1;stroke:#ff0000;stroke-width:0.26458332;stroke-linecap:butt;stroke-linejoin:miter;stroke-miterlimit:4;stroke-dasharray:none;stroke-dashoffset:0;stroke-opacity:1;paint-order:stroke fill markers"
       d="m 12.018566,88.552321 -3.7e-4,-12.297519 v 0 0 h 47.92869"
       id="path1292-1"
       inkscape:connector-curvature="0" />
    <path
       style="display:inline;opacity:1;fill:none;fill-opacity:1;stroke:#ff0000;stroke-width:0.26458332;stroke-linecap:butt;stroke-linejoin:miter;stroke-miterlimit:4;stroke-dasharray:none;stroke-dashoffset:0;stroke-opacity:1;paint-order:stroke fill markers"
       d="m 12.018185,140.51909 -2.04e-4,-18.25496 5.29e-4,-6.47416 c 0,-0.88593 0.413541,-1.2026 1.295522,-0.98442 l 5.152649,1.19854 c 0.881981,0.21816 1.29553,-0.0985 1.29553,-0.98444 v -13.26468 c 0,-0.88593 -0.413549,-1.2026 -1.29553,-0.98443 l -5.152649,1.19855 c -0.881981,0.21816 -1.295575,-0.0985 -1.29554,-0.98444 l 2.46e-4,-6.499845 -1.57e-4,-5.432255"
       id="rect5794-7-7-6-5-7-2"
       inkscape:connector-curvature="0" />
    <path
       id="path1140-7-2-9-7"
       style="display:inline;fill:none;stroke:#ff0000;stroke-width:0.26458332;stroke-linecap:butt;stroke-linejoin:miter;stroke-miterlimit:4;stroke-dasharray:none;stroke-opacity:1"
       d="m 140.54892,89.052355 1.2e-4,5.351058 -0.0101,6.581207 c -0.006,0.88592 0.41356,1.2026 1.29554,0.98444 l 5.15265,-1.19855 c 0.88198,-0.21816 1.29553,0.0985 1.29553,0.98443 v 13.26468 c 0,0.88594 -0.41355,1.2026 -1.29553,0.98444 l -5.15265,-1.19855 c -0.88198,-0.21817 -1.29552,0.0985 -1.29552,0.98443 l 0.01,6.56055 -2e-4,18.16857 m -48.115403,0 h 48.115273 l 2.6e-4,12.29788"
       inkscape:connector-curvature="0"
       sodipodi:nodetypes="cccccsscccccccc" />
    <path
       id="path1032-5-9-2-0"
       style="display:inline;fill:none;stroke:#ff0000;stroke-width:0.26458332;stroke-linecap:butt;stroke-linejoin:miter;stroke-miterlimit:4;stroke-dasharray:none;stroke-opacity:1"
       d="m 92.433367,76.254775 h 48.115273 l 2.6e-4,12.297873 m 7e-5,-63.764552 1.2e-4,5.351058 -0.0101,6.581211 c -0.006,0.885921 0.41356,1.2026 1.29554,0.984441 l 5.15265,-1.198552 c 0.88198,-0.218167 1.29553,0.0985 1.29553,0.98443 v 13.264681 c 0,0.885939 -0.41355,1.2026 -1.29553,0.984441 l -5.15265,-1.198552 c -0.88198,-0.21817 -1.29552,0.0985 -1.29552,0.98443 l 0.01,6.560542 -2e-4,18.168575"
       inkscape:connector-curvature="0"
       sodipodi:nodetypes="ccccccccssccccc" />
    <path
       id="path1134-3-1-2-9"
       style="display:inline;opacity:1;fill:none;fill-opacity:1;stroke:#ff0000;stroke-width:0.26458332;stroke-linecap:butt;stroke-linejoin:miter;stroke-miterlimit:4;stroke-dasharray:none;stroke-dashoffset:0;stroke-opacity:1;paint-order:stroke fill markers"
       d="m 76.283409,76.254775 v 0 0 h 15.649508 m -31.485587,2.7e-5 h 15.836105 l 4e-4,18.148638 -0.0101,6.58121 c -0.006,0.88592 0.41356,1.2026 1.29554,0.98444 l 5.15265,-1.19855 c 0.88198,-0.21817 1.29553,0.0985 1.29553,0.98443 v 13.26468 c 0,0.88594 -0.41355,1.2026 -1.29553,0.98444 l -5.15265,-1.19855 c -0.88198,-0.21817 -1.29552,0.0985 -1.29552,0.98443 l 0.01,6.56054 -2e-4,18.16858"
       inkscape:connector-curvature="0"
       sodipodi:nodetypes="ccccccccccssccccc" />
    <path
       sodipodi:nodetypes="cccc"
       inkscape:connector-curvature="0"
       id="path1032-3-8-3-2-75-6-3-3-3"
       d="m 194.88684,39.23616 v 125.49053 h -32.265 v -42.41136"
       style="display:inline;fill:none;stroke:#ff0000;stroke-width:0.26458332;stroke-linecap:butt;stroke-linejoin:miter;stroke-miterlimit:4;stroke-dasharray:none;stroke-opacity:1" />
    <path
       sodipodi:nodetypes="cccccc"
       inkscape:connector-curvature="0"
       id="path1036-6-5-8-8-9-3-6-1-6"
       d="M 162.62184,121.81533 V 12.46107 l 32.265,2.5e-4 v 0 0 26.27484"
       style="display:inline;fill:none;stroke:#ff0000;stroke-width:0.26458332;stroke-linecap:butt;stroke-linejoin:miter;stroke-miterlimit:4;stroke-dasharray:none;stroke-opacity:1" />
    <path
       inkscape:connector-curvature="0"
       id="path913-38-1-6-7-6-7-3-6"
       d="m 101.76684,225.01104 v 7.76277 H 85.501814 v 0 -7.76277"
       style="display:inline;opacity:1;fill:none;fill-opacity:1;stroke:#ff0000;stroke-width:0.26458332;stroke-linecap:butt;stroke-linejoin:miter;stroke-miterlimit:4;stroke-dasharray:none;stroke-dashoffset:0;stroke-opacity:1;paint-order:normal" />
    <path
       inkscape:connector-curvature="0"
       id="path909-3-0-8-5-1-9-5-2"
       d="m 85.501814,224.51082 v -8.00203 h 16.265026 v 8.00203"
       style="display:inline;opacity:1;fill:none;fill-opacity:1;stroke:#ff0000;stroke-width:0.26458332;stroke-linecap:butt;stroke-linejoin:miter;stroke-miterlimit:4;stroke-dasharray:none;stroke-dashoffset:0;stroke-opacity:1;paint-order:normal" />
    <path
       inkscape:connector-curvature="0"
       id="path913-38-1-6-7-6-7-36-1"
       d="m 101.76685,247.54379 v 7.76275 H 85.501816 v 0 -7.76275"
       style="display:inline;opacity:1;fill:none;fill-opacity:1;stroke:#ff0000;stroke-width:0.26458332;stroke-linecap:butt;stroke-linejoin:miter;stroke-miterlimit:4;stroke-dasharray:none;stroke-dashoffset:0;stroke-opacity:1;paint-order:normal" />
    <path
       inkscape:connector-curvature="0"
       id="path909-3-0-8-5-1-9-06-8"
       d="m 85.501816,247.04357 v -8.00203 h 16.265034 v 8.00203"
       style="display:inline;opacity:1;fill:none;fill-opacity:1;stroke:#ff0000;stroke-width:0.26458332;stroke-linecap:butt;stroke-linejoin:miter;stroke-miterlimit:4;stroke-dasharray:none;stroke-dashoffset:0;stroke-opacity:1;paint-order:normal" />
    <path
       inkscape:connector-curvature="0"
       style="display:inline;opacity:1;fill:none;fill-opacity:1;stroke:#ff0000;stroke-width:0.26458332;stroke-linecap:butt;stroke-linejoin:miter;stroke-miterlimit:4;stroke-dasharray:none;stroke-dashoffset:0;stroke-opacity:1;paint-order:normal"
       d="m 13.961125,235.17083 v -13.66018 0 h 56.265 l -1e-5,13.66017"
       id="path1528-7"
       sodipodi:nodetypes="ccccc" />
    <path
       inkscape:connector-curvature="0"
       style="display:inline;opacity:1;fill:none;fill-opacity:1;stroke:#ff0000;stroke-width:0.26458332;stroke-linecap:butt;stroke-linejoin:miter;stroke-miterlimit:4;stroke-dasharray:none;stroke-dashoffset:0;stroke-opacity:1;paint-order:normal"
       d="m 70.226115,235.67105 1e-5,14.1046 h -56.265 v -14.10459"
       id="path1533-9"
       sodipodi:nodetypes="cccc" />
    <path
       sodipodi:nodetypes="cccc"
       inkscape:connector-curvature="0"
       style="display:inline;opacity:1;fill:none;fill-opacity:1;stroke:#ff0000;stroke-width:0.26458332;stroke-linecap:butt;stroke-linejoin:miter;stroke-miterlimit:4;stroke-dasharray:none;stroke-dashoffset:0;stroke-opacity:1;paint-order:normal"
       d="m 114.47112,224.57023 v -8.06144 h 32.26499 v 8.06144"
       id="path1049-3-7-1-3-9-43-2" />
    <path
       inkscape:connector-curvature="0"
       style="display:inline;opacity:1;fill:none;fill-opacity:1;stroke:#ff0000;stroke-width:0.26458332;stroke-linecap:butt;stroke-linejoin:miter;stroke-miterlimit:4;stroke-dasharray:none;stroke-dashoffset:0;stroke-opacity:1;paint-order:normal"
       d="m 146.73611,225.07045 v 7.70334 h -32.26499 v -7.70333"
       id="path1045-5-2-5-5-3-0-0" />
    <path
       sodipodi:nodetypes="cccc"
       inkscape:connector-curvature="0"
       style="display:inline;opacity:1;fill:none;fill-opacity:1;stroke:#ff0000;stroke-width:0.26458332;stroke-linecap:butt;stroke-linejoin:miter;stroke-miterlimit:4;stroke-dasharray:none;stroke-dashoffset:0;stroke-opacity:1;paint-order:normal"
       d="m 114.47113,247.10302 v -8.06144 h 32.26499 v 8.06144"
       id="path1049-3-7-1-3-9-43-0-2" />
    <path
       inkscape:connector-curvature="0"
       style="display:inline;opacity:1;fill:none;fill-opacity:1;stroke:#ff0000;stroke-width:0.26458332;stroke-linecap:butt;stroke-linejoin:miter;stroke-miterlimit:4;stroke-dasharray:none;stroke-dashoffset:0;stroke-opacity:1;paint-order:normal"
       d="m 146.73612,247.60324 v 7.70334 h -32.26499 v -7.70333"
       id="path1045-5-2-5-5-3-0-9-3" />
    <path
       inkscape:connector-curvature="0"
       style="display:inline;opacity:1;fill:none;fill-opacity:1;stroke:#ff0000;stroke-width:0.26499999;stroke-linecap:butt;stroke-linejoin:miter;stroke-miterlimit:4;stroke-dasharray:none;stroke-dashoffset:0;stroke-opacity:1;paint-order:normal"
       d="m 162.67504,247.10301 v -8.06144 0 h 32.26501 v 8.06144"
       id="path1049-61-93-8-7" />
    <path
       inkscape:connector-curvature="0"
       style="display:inline;opacity:1;fill:none;fill-opacity:1;stroke:#ff0000;stroke-width:0.26458332;stroke-linecap:butt;stroke-linejoin:miter;stroke-miterlimit:4;stroke-dasharray:none;stroke-dashoffset:0;stroke-opacity:1;paint-order:normal"
       d="m 194.94005,247.60323 v 7.70334 h -32.26501 v -7.70333"
       id="path1045-8-19-9-5" />
    <path
       inkscape:connector-curvature="0"
       id="path909-3-0-8-5-1-9-8-3-9"
       d="m 175.72542,219.10971 v 8.00203 h -16.26503 v -8.00203"
       style="display:inline;opacity:1;fill:none;fill-opacity:1;stroke:#ff0000;stroke-width:0.26458332;stroke-linecap:butt;stroke-linejoin:miter;stroke-miterlimit:4;stroke-dasharray:none;stroke-dashoffset:0;stroke-opacity:1;paint-order:normal" />
    <path
       inkscape:connector-curvature="0"
       id="path909-3-0-8-5-1-9-8-3-2-2"
       d="m 198.04838,219.10971 v 8.00203 h -16.26503 v -8.00203"
       style="display:inline;opacity:1;fill:none;fill-opacity:1;stroke:#ff0000;stroke-width:0.26458332;stroke-linecap:butt;stroke-linejoin:miter;stroke-miterlimit:4;stroke-dasharray:none;stroke-dashoffset:0;stroke-opacity:1;paint-order:normal" />
    <path
       inkscape:connector-curvature="0"
       id="path913-38-9-7-5-1-9-2"
       d="m 159.4603,186.07959 v -7.76276 h 16.26503 v 0 7.76276"
       style="display:inline;opacity:1;fill:none;fill-opacity:1;stroke:#ff0000;stroke-width:0.26458332;stroke-linecap:butt;stroke-linejoin:miter;stroke-miterlimit:4;stroke-dasharray:none;stroke-dashoffset:0;stroke-opacity:1;paint-order:normal" />
    <path
       id="path913-38-9-7-5-1-9-7-8"
       style="display:inline;opacity:1;fill:none;fill-opacity:1;stroke:#ff0000;stroke-width:0.26458332;stroke-linecap:butt;stroke-linejoin:miter;stroke-miterlimit:4;stroke-dasharray:none;stroke-dashoffset:0;stroke-opacity:1;paint-order:normal"
       d="m 159.4603,202.34459 v -7.76276 h 16.26503 v 0 7.76276 m 0,-15.76478 v 8.00202 m -16.26503,0 v -8.00202"
       inkscape:connector-curvature="0" />
    <path
       id="path909-3-4-89-4-8-1-9-9"
       style="display:inline;opacity:1;fill:none;fill-opacity:1;stroke:#ff0000;stroke-width:0.26458332;stroke-linecap:butt;stroke-linejoin:miter;stroke-miterlimit:4;stroke-dasharray:none;stroke-dashoffset:0;stroke-opacity:1;paint-order:normal"
       d="m 175.72533,202.84481 v 8.00202 m -16.26503,0 v -8.00202 m 9e-5,15.76468 v -7.76276 h 16.26503 v 0 7.76276"
       inkscape:connector-curvature="0" />
    <path
       inkscape:connector-curvature="0"
       id="path913-38-9-7-5-4-7-0-7"
       d="m 181.78336,186.07961 v -7.76276 h 16.26503 v 0 7.76276"
       style="display:inline;opacity:1;fill:none;fill-opacity:1;stroke:#ff0000;stroke-width:0.26458332;stroke-linecap:butt;stroke-linejoin:miter;stroke-miterlimit:4;stroke-dasharray:none;stroke-dashoffset:0;stroke-opacity:1;paint-order:normal" />
    <path
       id="path913-38-9-7-5-4-7-0-9-3"
       style="display:inline;opacity:1;fill:none;fill-opacity:1;stroke:#ff0000;stroke-width:0.26458332;stroke-linecap:butt;stroke-linejoin:miter;stroke-miterlimit:4;stroke-dasharray:none;stroke-dashoffset:0;stroke-opacity:1;paint-order:normal"
       d="m 181.78337,202.3446 v -7.76276 h 16.26503 v 0 7.76276 m -10e-6,-15.76477 v 8.00202 m -16.26503,0 v -8.00202"
       inkscape:connector-curvature="0" />
    <path
       id="path909-3-4-89-4-9-5-6-3-6"
       style="display:inline;opacity:1;fill:none;fill-opacity:1;stroke:#ff0000;stroke-width:0.26458332;stroke-linecap:butt;stroke-linejoin:miter;stroke-miterlimit:4;stroke-dasharray:none;stroke-dashoffset:0;stroke-opacity:1;paint-order:normal"
       d="m 198.0484,202.84482 v 8.00202 m -16.26503,0 v -8.00202 m -2e-5,15.76467 v -7.76276 h 16.26503 v 0 7.76276"
       inkscape:connector-curvature="0" />
    <path
       style="display:inline;opacity:1;fill:none;fill-opacity:1;stroke:#ff0000;stroke-width:0.26458332;stroke-linecap:butt;stroke-linejoin:miter;stroke-miterlimit:4;stroke-dasharray:none;stroke-dashoffset:0;stroke-opacity:1;paint-order:normal"
       d="m 20.94063,238.39987 -3e-6,5.3816 v 0 h 16.265001 v -5.38264"
       id="path2369-9"
       inkscape:connector-curvature="0" />
    <path
       style="display:inline;opacity:1;fill:none;fill-opacity:1;stroke:#ff0000;stroke-width:0.26458332;stroke-linecap:butt;stroke-linejoin:miter;stroke-miterlimit:4;stroke-dasharray:none;stroke-dashoffset:0;stroke-opacity:1;paint-order:normal"
       d="m 37.205628,237.8986 v -5.38263 H 20.940627 v 5.38419"
       id="path1199-5-3"
       inkscape:connector-curvature="0" />
    <path
       style="display:inline;opacity:1;fill:none;fill-opacity:1;stroke:#ff0000;stroke-width:0.26458332;stroke-linecap:butt;stroke-linejoin:miter;stroke-miterlimit:4;stroke-dasharray:none;stroke-dashoffset:0;stroke-opacity:1;paint-order:normal"
       d="m 174.02513,138.66265 h -5.38161 v 0 16.265 h 5.38264"
       id="path2369-6-9"
       inkscape:connector-curvature="0" />
    <path
       style="display:inline;opacity:1;fill:none;fill-opacity:1;stroke:#ff0000;stroke-width:0.26458332;stroke-linecap:butt;stroke-linejoin:miter;stroke-miterlimit:4;stroke-dasharray:none;stroke-dashoffset:0;stroke-opacity:1;paint-order:normal"
       d="m 174.52639,154.92765 h 5.38263 v -16.265 h -5.38418"
       id="path1199-5-7-4"
       inkscape:connector-curvature="0" />
    <path
       style="display:inline;opacity:1;fill:none;fill-opacity:1;stroke:#ff0000;stroke-width:0.26458332;stroke-linecap:butt;stroke-linejoin:miter;stroke-miterlimit:4;stroke-dasharray:none;stroke-dashoffset:0;stroke-opacity:1;paint-order:normal"
       d="m 174.02512,90.79419 -5.38161,-3e-6 v 0 16.265003 h 5.38265"
       id="path2369-3-8"
       inkscape:connector-curvature="0" />
    <path
       style="display:inline;opacity:1;fill:none;fill-opacity:1;stroke:#ff0000;stroke-width:0.26458332;stroke-linecap:butt;stroke-linejoin:miter;stroke-miterlimit:4;stroke-dasharray:none;stroke-dashoffset:0;stroke-opacity:1;paint-order:normal"
       d="m 174.52638,107.05919 h 5.38263 V 90.794187 h -5.38418"
       id="path1199-5-5-4"
       inkscape:connector-curvature="0" />
    <path
       style="display:inline;opacity:1;fill:none;fill-opacity:1;stroke:#ff0000;stroke-width:0.26458332;stroke-linecap:butt;stroke-linejoin:miter;stroke-miterlimit:4;stroke-dasharray:none;stroke-dashoffset:0;stroke-opacity:1;paint-order:normal"
       d="m 174.02512,67.02719 -5.38161,-3e-6 v 0 16.265001 h 5.38265"
       id="path2369-2-0"
       inkscape:connector-curvature="0" />
    <path
       style="display:inline;opacity:1;fill:none;fill-opacity:1;stroke:#ff0000;stroke-width:0.26458332;stroke-linecap:butt;stroke-linejoin:miter;stroke-miterlimit:4;stroke-dasharray:none;stroke-dashoffset:0;stroke-opacity:1;paint-order:normal"
       d="m 174.52638,83.292188 h 5.38263 V 67.027187 h -5.38418"
       id="path1199-5-9-3"
       inkscape:connector-curvature="0" />
    <path
       style="display:inline;opacity:1;fill:none;fill-opacity:1;stroke:#ff0000;stroke-width:0.26458332;stroke-linecap:butt;stroke-linejoin:miter;stroke-miterlimit:4;stroke-dasharray:none;stroke-dashoffset:0;stroke-opacity:1;paint-order:normal"
       d="m 174.02513,43.26753 -5.3816,-3e-6 v 0 16.265001 h 5.38264"
       id="path2369-27-1"
       inkscape:connector-curvature="0" />
    <path
       style="display:inline;opacity:1;fill:none;fill-opacity:1;stroke:#ff0000;stroke-width:0.26458332;stroke-linecap:butt;stroke-linejoin:miter;stroke-miterlimit:4;stroke-dasharray:none;stroke-dashoffset:0;stroke-opacity:1;paint-order:normal"
       d="m 174.5264,59.532528 h 5.38263 V 43.267527 h -5.38419"
       id="path1199-5-0-0"
       inkscape:connector-curvature="0" />
    <path
       style="display:inline;opacity:1;fill:none;fill-opacity:1;stroke:#ff0000;stroke-width:0.26458332;stroke-linecap:butt;stroke-linejoin:miter;stroke-miterlimit:4;stroke-dasharray:none;stroke-dashoffset:0;stroke-opacity:1;paint-order:normal"
       d="m 174.02513,19.50645 -5.3816,-3e-6 v 0 16.265001 h 5.38264"
       id="path2369-36-3"
       inkscape:connector-curvature="0" />
    <path
       style="display:inline;opacity:1;fill:none;fill-opacity:1;stroke:#ff0000;stroke-width:0.26458332;stroke-linecap:butt;stroke-linejoin:miter;stroke-miterlimit:4;stroke-dasharray:none;stroke-dashoffset:0;stroke-opacity:1;paint-order:normal"
       d="m 174.5264,35.771448 h 5.38263 V 19.506447 h -5.38419"
       id="path1199-5-06-2"
       inkscape:connector-curvature="0" />
  </g>
</svg>
