<?xml version="1.0" encoding="UTF-8" standalone="no"?>
<!-- Created with Inkscape (http://www.inkscape.org/) -->

<svg
   xmlns:dc="http://purl.org/dc/elements/1.1/"
   xmlns:cc="http://creativecommons.org/ns#"
   xmlns:rdf="http://www.w3.org/1999/02/22-rdf-syntax-ns#"
   xmlns:svg="http://www.w3.org/2000/svg"
   xmlns="http://www.w3.org/2000/svg"
   xmlns:sodipodi="http://sodipodi.sourceforge.net/DTD/sodipodi-0.dtd"
   xmlns:inkscape="http://www.inkscape.org/namespaces/inkscape"
   width="209.55mm"
   height="266.70001mm"
   viewBox="0 0 209.54999 266.70001"
   version="1.1"
   id="svg1288"
   inkscape:version="0.92.5 (0.92.5+68)"
   sodipodi:docname="punchout-1-cut.svg"
   inkscape:export-filename="./punchout-1-cut.png"
   inkscape:export-xdpi="300"
   inkscape:export-ydpi="300">
  <defs
     id="defs1282">
    <inkscape:path-effect
       effect="spiro"
       id="path-effect2802"
       is_visible="true" />
    <inkscape:path-effect
       effect="spiro"
       id="path-effect2802-9"
       is_visible="true" />
    <inkscape:path-effect
       effect="spiro"
       id="path-effect2802-6"
       is_visible="true" />
    <inkscape:path-effect
       effect="spiro"
       id="path-effect2657-6"
       is_visible="true" />
    <inkscape:path-effect
       effect="bspline"
       id="path-effect2821-3"
       is_visible="true"
       weight="33.333333"
       steps="2"
       helper_size="0"
       apply_no_weight="true"
       apply_with_weight="true"
       only_selected="false" />
    <inkscape:path-effect
       effect="bspline"
       id="path-effect2825-6"
       is_visible="true"
       weight="33.333333"
       steps="2"
       helper_size="0"
       apply_no_weight="true"
       apply_with_weight="true"
       only_selected="false" />
    <inkscape:path-effect
       effect="spiro"
       id="path-effect2833-7"
       is_visible="true" />
    <inkscape:path-effect
       effect="spiro"
       id="path-effect2837-53"
       is_visible="true" />
    <inkscape:path-effect
       effect="spiro"
       id="path-effect2841-5"
       is_visible="true" />
  </defs>
  <sodipodi:namedview
     id="base"
     pagecolor="#ffffff"
     bordercolor="#666666"
     borderopacity="1.0"
     inkscape:pageopacity="0.0"
     inkscape:pageshadow="2"
     inkscape:zoom="0.62660188"
     inkscape:cx="-337.37564"
     inkscape:cy="613.42919"
     inkscape:document-units="mm"
     inkscape:current-layer="g6676"
     showgrid="false"
     units="mm"
     inkscape:window-width="1875"
     inkscape:window-height="1056"
     inkscape:window-x="45"
     inkscape:window-y="24"
     inkscape:window-maximized="1"
     inkscape:snap-global="true"
     showguides="true">
    <inkscape:grid
       type="xygrid"
       id="grid1027" />
  </sodipodi:namedview>
  <metadata
     id="metadata1285">
    <rdf:RDF>
      <cc:Work
         rdf:about="">
        <dc:format>image/svg+xml</dc:format>
        <dc:type
           rdf:resource="http://purl.org/dc/dcmitype/StillImage" />
        <dc:title />
      </cc:Work>
    </rdf:RDF>
  </metadata>
  <g
     style="display:inline"
     inkscape:label="cut"
     id="g6676"
     inkscape:groupmode="layer"
     sodipodi:insensitive="true">
    <path
       inkscape:connector-curvature="0"
       id="path6586-5"
       d="m 182.14792,17.400281 v -7.76276 h 16.26503 v 0 7.76276"
       style="opacity:1;fill:none;fill-opacity:1;stroke:#ff0000;stroke-width:0.26458332;stroke-linecap:butt;stroke-linejoin:miter;stroke-miterlimit:4;stroke-dasharray:none;stroke-dashoffset:0;stroke-opacity:1;paint-order:normal" />
    <path
       inkscape:connector-curvature="0"
       d="m 182.14792,33.665281 v -7.76276 m 16.26503,0 v 7.76276 m 0,-15.76478 v 8.00202 h -16.26503 v -8.00202"
       style="opacity:1;fill:none;fill-opacity:1;stroke:#ff0000;stroke-width:0.26458332;stroke-linecap:butt;stroke-linejoin:miter;stroke-miterlimit:4;stroke-dasharray:none;stroke-dashoffset:0;stroke-opacity:1;paint-order:normal"
       id="path6592-7" />
    <path
       inkscape:connector-curvature="0"
       id="path6594-7"
       d="m 198.41295,34.165501 v 8.00202 h -16.26503 v -8.00202"
       style="opacity:1;fill:none;fill-opacity:1;stroke:#ff0000;stroke-width:0.26458332;stroke-linecap:butt;stroke-linejoin:miter;stroke-miterlimit:4;stroke-dasharray:none;stroke-dashoffset:0;stroke-opacity:1;paint-order:normal" />
    <path
       inkscape:connector-curvature="0"
       id="path6588-5-7"
       d="m 176.15053,50.430703 v 8.00202 h -16.26502 v -8.00202"
       style="opacity:1;fill:none;fill-opacity:1;stroke:#ff0000;stroke-width:0.26458332;stroke-linecap:butt;stroke-linejoin:miter;stroke-miterlimit:4;stroke-dasharray:none;stroke-dashoffset:0;stroke-opacity:1;paint-order:normal" />
    <path
       inkscape:connector-curvature="0"
       id="path6592-2-56"
       d="m 182.14792,55.932679 v -7.76276 h 16.26502 v 0 7.76276"
       style="opacity:1;fill:none;fill-opacity:1;stroke:#ff0000;stroke-width:0.26458332;stroke-linecap:butt;stroke-linejoin:miter;stroke-miterlimit:4;stroke-dasharray:none;stroke-dashoffset:0;stroke-opacity:1;paint-order:normal" />
    <path
       inkscape:connector-curvature="0"
       id="path6594-5-9"
       d="m 198.41301,88.963062 v 8.00202 h -16.26502 v -8.00202"
       style="opacity:1;fill:none;fill-opacity:1;stroke:#ff0000;stroke-width:0.26458332;stroke-linecap:butt;stroke-linejoin:miter;stroke-miterlimit:4;stroke-dasharray:none;stroke-dashoffset:0;stroke-opacity:1;paint-order:normal" />
    <path
       inkscape:connector-curvature="0"
       id="path6606-4-8"
       d="m 176.15053,88.963061 v 8.00202 h -16.26502 v -8.00202"
       style="opacity:1;fill:none;fill-opacity:1;stroke:#ff0000;stroke-width:0.26458332;stroke-linecap:butt;stroke-linejoin:miter;stroke-miterlimit:4;stroke-dasharray:none;stroke-dashoffset:0;stroke-opacity:1;paint-order:normal" />
    <path
       inkscape:connector-curvature="0"
       id="path6598-7-2"
       d="m 159.88554,127.72975 v 7.76276 h 16.26503 v 0 -7.76276"
       style="opacity:1;fill:none;fill-opacity:1;stroke:#ff0000;stroke-width:0.26458332;stroke-linecap:butt;stroke-linejoin:miter;stroke-miterlimit:4;stroke-dasharray:none;stroke-dashoffset:0;stroke-opacity:1;paint-order:normal" />
    <path
       inkscape:connector-curvature="0"
       id="path6586-3-8-3"
       d="m 182.14797,143.99496 v 7.76276 H 198.413 v 0 -7.76276"
       style="opacity:1;fill:none;fill-opacity:1;stroke:#ff0000;stroke-width:0.26458332;stroke-linecap:butt;stroke-linejoin:miter;stroke-miterlimit:4;stroke-dasharray:none;stroke-dashoffset:0;stroke-opacity:1;paint-order:normal" />
    <path
       inkscape:connector-curvature="0"
       id="path6594-1-7-1-0"
       d="m 159.88549,247.34551 v 8.00202 h 16.26503 v -8.00202"
       style="opacity:1;fill:none;fill-opacity:1;stroke:#ff0000;stroke-width:0.26458332;stroke-linecap:butt;stroke-linejoin:miter;stroke-miterlimit:4;stroke-dasharray:none;stroke-dashoffset:0;stroke-opacity:1;paint-order:normal" />
    <path
       inkscape:connector-curvature="0"
       id="path6606-6-9-9-8"
       d="m 182.14797,247.34551 v 8.00202 H 198.413 v -8.00202"
       style="opacity:1;fill:none;fill-opacity:1;stroke:#ff0000;stroke-width:0.26458332;stroke-linecap:butt;stroke-linejoin:miter;stroke-miterlimit:4;stroke-dasharray:none;stroke-dashoffset:0;stroke-opacity:1;paint-order:normal" />
    <path
       inkscape:connector-curvature="0"
       style="display:inline;opacity:1;fill:none;fill-opacity:1;stroke:#ff0000;stroke-width:0.26458332;stroke-linecap:butt;stroke-linejoin:miter;stroke-miterlimit:4;stroke-dasharray:none;stroke-dashoffset:0;stroke-opacity:1;paint-order:normal"
       d="m 91.688296,255.21502 h -8.06144 v 0 -32.26499 h 8.06144"
       id="path1049-3-9-0" />
    <path
       inkscape:connector-curvature="0"
       style="display:inline;opacity:1;fill:none;fill-opacity:1;stroke:#ff0000;stroke-width:0.26458332;stroke-linecap:butt;stroke-linejoin:miter;stroke-miterlimit:4;stroke-dasharray:none;stroke-dashoffset:0;stroke-opacity:1;paint-order:normal"
       d="m 67.986036,222.95003 h 7.70334 v 32.26499 h -7.70333"
       id="path1045-5-2-5-3" />
    <path
       inkscape:connector-curvature="0"
       style="display:inline;opacity:1;fill:none;fill-opacity:1;stroke:#ff0000;stroke-width:0.26458332;stroke-linecap:butt;stroke-linejoin:miter;stroke-miterlimit:4;stroke-dasharray:none;stroke-dashoffset:0;stroke-opacity:1;paint-order:normal"
       d="m 18.690824,255.21502 h -8.06144 v 0 -32.26499 h 8.06144"
       id="path1049-3-9-1-5" />
    <path
       inkscape:connector-curvature="0"
       style="fill:none;stroke:#ff0000;stroke-width:0.26499999;stroke-linecap:butt;stroke-linejoin:miter;stroke-miterlimit:4;stroke-dasharray:none;stroke-opacity:1"
       d="m 49.995921,76.020874 v 0"
       id="path1832-6" />
    <path
       inkscape:connector-curvature="0"
       style="fill:none;stroke:#ff0000;stroke-width:0.26499999;stroke-linecap:butt;stroke-linejoin:miter;stroke-miterlimit:4;stroke-dasharray:none;stroke-opacity:1"
       d="m 49.995921,76.020874 v 0"
       id="path1830-1" />
    <path
       inkscape:connector-curvature="0"
       style="fill:none;stroke:#ff0000;stroke-width:0.26499999;stroke-linecap:butt;stroke-linejoin:miter;stroke-miterlimit:4;stroke-dasharray:none;stroke-opacity:1"
       d="m 11.757106,65.157033 -4.5e-4,-7.371078 -3.17e-4,-6.50277 c 0,-0.88594 0.413546,-1.2026 1.295528,-0.98444 l 5.152641,1.198549 c 0.881982,0.21817 1.295528,-0.09849 1.295528,-0.98443 -1e-6,-4.421555 -1e-6,-8.843111 0,-13.264666 0,-0.88594 -0.413546,-1.2026 -1.295528,-0.98444 l -5.152641,1.198549 c -0.881982,0.21816 -1.295277,-0.09849 -1.295541,-0.98444 l -1.59e-4,-6.493164 5.03e-4,-18.23029 18.226234,-9.8e-5 6.502815,2.91e-4 c 0.885945,0 1.2026,0.413546 0.984435,1.295528 l -1.198546,5.15264 c -0.218165,0.881983 0.09849,1.295528 0.984435,1.295528 h 13.264676 c 0.885945,0 1.2026,-0.413545 0.984435,-1.295528 l -1.198546,-5.15264 c -0.218165,-0.881982 0.09849,-1.295277 0.984435,-1.295541 l 6.5044,1.23e-4 82.227157,5.82e-4 5e-5,9.817391"
       id="path6534-1"
       sodipodi:nodetypes="cccccsscccccccccsscccccc" />
    <path
       inkscape:connector-curvature="0"
       style="fill:none;stroke:#ff0000;stroke-width:0.26499999;stroke-linecap:butt;stroke-linejoin:miter;stroke-miterlimit:4;stroke-dasharray:none;stroke-opacity:1"
       d="m 49.995921,204.55493 v 0"
       id="path1832-8-5" />
    <path
       inkscape:connector-curvature="0"
       style="fill:none;stroke:#ff0000;stroke-width:0.26499999;stroke-linecap:butt;stroke-linejoin:miter;stroke-miterlimit:4;stroke-dasharray:none;stroke-opacity:1"
       d="m 49.995921,204.55493 v 0"
       id="path1830-5-9" />
    <path
       inkscape:connector-curvature="0"
       style="fill:none;stroke:#ff0000;stroke-width:0.26499999;stroke-linecap:butt;stroke-linejoin:miter;stroke-miterlimit:4;stroke-dasharray:none;stroke-opacity:1"
       d="m 140.02265,150.60696 5e-5,7.82477 -0.0168,6.58017 c -0.0105,0.88588 0.41356,1.2026 1.29554,0.98444 l 5.15265,-1.19854 c 0.88198,-0.21817 1.29551,0.0985 1.29551,0.98442 v 13.26468 c 0,0.88595 -0.41353,1.2026 -1.29551,0.98443 l -5.15265,-1.19853 c -0.88198,-0.21817 -1.29553,0.0985 -1.29553,0.98442 l 0.0177,6.56452 2e-5,18.17245 -82.154179,5e-4 -6.578386,7.9e-4 c -0.885945,1.1e-4 -1.2026,0.39405 -0.984435,1.27603 l 1.198546,5.15264 c 0.218165,0.88198 -0.09849,1.29553 -0.984435,1.29553 H 37.256062 c -0.885945,0 -1.2026,-0.41355 -0.984435,-1.29553 l 1.198549,-5.15264 c 0.218165,-0.88198 -0.09849,-1.27603 -0.984435,-1.27603 h -6.577036 l -18.150935,-5.3e-4 -6.35e-4,-10.36364"
       id="path1600-3-8"
       sodipodi:nodetypes="cccccsscccccccccssccsccc" />
    <path
       id="path2231-4"
       d="m 49.995921,140.28789 v 0"
       style="fill:none;stroke:#ff0000;stroke-width:0.26499999;stroke-linecap:butt;stroke-linejoin:miter;stroke-miterlimit:4;stroke-dasharray:none;stroke-opacity:1"
       inkscape:connector-curvature="0" />
    <path
       id="path2233-8"
       d="m 49.995921,140.28789 v 0"
       style="fill:none;stroke:#ff0000;stroke-width:0.26499999;stroke-linecap:butt;stroke-linejoin:miter;stroke-miterlimit:4;stroke-dasharray:none;stroke-opacity:1"
       inkscape:connector-curvature="0" />
    <path
       id="path2235-1"
       style="fill:none;stroke:#ff0000;stroke-width:0.26499999;stroke-linecap:butt;stroke-linejoin:miter;stroke-miterlimit:4;stroke-dasharray:none;stroke-opacity:1"
       d="m 11.757135,129.92427 6.35e-4,10.36364 m 64.313542,10e-4 -18.275869,-5.3e-4 -6.5044,-1.3e-4 c -0.885944,2.7e-4 -1.2026,0.41356 -0.984435,1.29555 l 1.198546,5.15263 c 0.218165,0.88199 -0.09849,1.29553 -0.984435,1.29553 H 37.256043 c -0.885944,0 -1.2026,-0.41354 -0.984435,-1.29553 l 1.198546,-5.15263 c 0.218165,-0.88199 -0.09849,-1.29553 -0.984435,-1.29553 l -6.502815,-2.9e-4 -18.226234,9e-5 -5.03e-4,18.23029 1.59e-4,6.49317 c 2.64e-4,0.88595 0.413559,1.2026 1.295541,0.98444 l 5.152641,-1.19855 c 0.881982,-0.21816 1.295528,0.0985 1.295528,0.98444 -1e-6,4.42155 -1e-6,8.84311 0,13.26467 0,0.88594 -0.413546,1.20259 -1.295528,0.98443 l -5.152641,-1.19855 c -0.881982,-0.21816 -1.295528,0.0985 -1.295528,0.98444 l 3.17e-4,6.50277 4.5e-4,7.37107"
       inkscape:connector-curvature="0" />
    <path
       id="path2237-0"
       style="fill:none;stroke:#ff0000;stroke-width:0.26499999;stroke-linecap:butt;stroke-linejoin:miter;stroke-miterlimit:4;stroke-dasharray:none;stroke-opacity:1"
       d="m 11.75667,76.021424 -5.03e-4,18.23029 1.59e-4,6.493166 c 2.64e-4,0.88595 0.413559,1.2026 1.295541,0.98444 l 5.152641,-1.19855 c 0.881982,-0.21816 1.295528,0.0985 1.295528,0.98444 -1e-6,4.42155 -1e-6,8.84311 0,13.26467 0,0.88594 -0.413546,1.20259 -1.295528,0.98443 l -5.152641,-1.19855 c -0.881982,-0.21816 -1.295528,0.0985 -1.295528,0.98444 l 3.17e-4,6.50277 4.5e-4,7.37107 m 2.9e-5,-63.766783 6.35e-4,10.363647 18.150935,5.29e-4 h 6.577036 c 0.885944,0 1.2026,0.394049 0.984435,1.27603 l -1.198549,5.152638 c -0.218165,0.881981 0.09849,1.29553 0.984435,1.29553 h 13.264679 c 0.885944,0 1.2026,-0.413549 0.984435,-1.29553 L 50.30663,77.297463 c -0.218165,-0.881981 0.09849,-1.275922 0.984435,-1.27603 l 6.578386,-7.94e-4 18.201841,1.06e-4"
       inkscape:connector-curvature="0" />
    <path
       id="path2239-3"
       style="fill:none;stroke:#ff0000;stroke-width:0.26499999;stroke-linecap:butt;stroke-linejoin:miter;stroke-miterlimit:4;stroke-dasharray:none;stroke-opacity:1"
       d="m 140.02265,86.339922 5e-5,7.824768 -0.0168,6.58017 c -0.0105,0.88589 0.41356,1.2026 1.29554,0.98444 l 5.15265,-1.19854 c 0.88198,-0.21817 1.29551,0.0985 1.29551,0.98443 v 13.26467 c 0,0.88595 -0.41353,1.2026 -1.29551,0.98443 l -5.15265,-1.19853 c -0.88198,-0.21817 -1.29553,0.0985 -1.29553,0.98443 l 0.0177,6.56451 2e-5,18.17244 m -63.452658,0.002 63.451628,5e-5 5e-5,9.81739"
       inkscape:connector-curvature="0" />
    <path
       id="path2241-0"
       style="fill:none;stroke:#ff0000;stroke-width:0.26499999;stroke-linecap:butt;stroke-linejoin:miter;stroke-miterlimit:4;stroke-dasharray:none;stroke-opacity:1"
       d="m 140.0226,76.022309 5e-5,9.817391 m 0,-63.766789 5e-5,7.824768 -0.0168,6.580174 c -0.0105,0.885881 0.41356,1.2026 1.29554,0.984433 l 5.15265,-1.198541 c 0.88198,-0.218171 1.29551,0.0985 1.29551,0.984429 0,4.421561 0,8.843119 0,13.264679 0,0.885942 -0.41353,1.2026 -1.29551,0.98443 l -5.15265,-1.198538 c -0.88198,-0.218171 -1.29553,0.0985 -1.29553,0.984429 l 0.0177,6.564519 2e-5,18.172441 -63.452821,5.29e-4"
       inkscape:connector-curvature="0" />
    <path
       inkscape:connector-curvature="0"
       d="m 51.721036,222.95003 h 7.70334 v 32.26499 h -7.70333 m 15.76477,0 h -8.06144 m 0,-32.26499 h 8.06144"
       style="display:inline;opacity:1;fill:none;fill-opacity:1;stroke:#ff0000;stroke-width:0.26458332;stroke-linecap:butt;stroke-linejoin:miter;stroke-miterlimit:4;stroke-dasharray:none;stroke-dashoffset:0;stroke-opacity:1;paint-order:normal"
       id="path1045-5-2-5-7-4" />
    <path
       inkscape:connector-curvature="0"
       d="m 34.955816,255.21502 h -8.06144 m 0,-32.26499 h 8.06144 m -15.76477,0 h 7.70334 v 32.26499 h -7.70333"
       style="display:inline;opacity:1;fill:none;fill-opacity:1;stroke:#ff0000;stroke-width:0.26458332;stroke-linecap:butt;stroke-linejoin:miter;stroke-miterlimit:4;stroke-dasharray:none;stroke-dashoffset:0;stroke-opacity:1;paint-order:normal"
       id="path1049-3-7-1-3-4" />
    <path
       inkscape:connector-curvature="0"
       d="m 35.456036,222.95003 h 7.70334 v 32.26499 h -7.70333 m 15.76477,0 h -8.06144 m 0,-32.26499 h 8.06144"
       style="display:inline;opacity:1;fill:none;fill-opacity:1;stroke:#ff0000;stroke-width:0.26458332;stroke-linecap:butt;stroke-linejoin:miter;stroke-miterlimit:4;stroke-dasharray:none;stroke-dashoffset:0;stroke-opacity:1;paint-order:normal"
       id="path1045-5-2-5-5-7" />
    <path
       inkscape:connector-curvature="0"
       style="display:inline;opacity:1;fill:none;fill-opacity:1;stroke:#ff0000;stroke-width:0.26458332;stroke-linecap:butt;stroke-linejoin:miter;stroke-miterlimit:4;stroke-dasharray:none;stroke-dashoffset:0;stroke-opacity:1;paint-order:normal"
       d="m 140.98353,222.95003 h 7.70334 v 32.26499 h -7.70333"
       id="path1045-5-2-5-9-3" />
    <path
       inkscape:connector-curvature="0"
       d="m 124.71853,222.95003 h 7.70334 v 32.26499 h -7.70333 m 15.76477,0 h -8.06144 m 0,-32.26499 h 8.06144"
       style="display:inline;opacity:1;fill:none;fill-opacity:1;stroke:#ff0000;stroke-width:0.26458332;stroke-linecap:butt;stroke-linejoin:miter;stroke-miterlimit:4;stroke-dasharray:none;stroke-dashoffset:0;stroke-opacity:1;paint-order:normal"
       id="path1045-5-2-5-0-7" />
    <path
       inkscape:connector-curvature="0"
       d="m 107.95331,255.21502 h -8.06144 m 0,-32.26499 h 8.06144 m -15.76479,0 h 7.70334 v 32.26499 h -7.70333"
       style="display:inline;opacity:1;fill:none;fill-opacity:1;stroke:#ff0000;stroke-width:0.26458332;stroke-linecap:butt;stroke-linejoin:miter;stroke-miterlimit:4;stroke-dasharray:none;stroke-dashoffset:0;stroke-opacity:1;paint-order:normal"
       id="path1049-3-7-1-36-9" />
    <path
       inkscape:connector-curvature="0"
       d="m 108.45353,222.95003 h 7.70334 v 32.26499 h -7.70333 m 15.76477,0 h -8.06144 m 0,-32.26499 h 8.06144"
       style="display:inline;opacity:1;fill:none;fill-opacity:1;stroke:#ff0000;stroke-width:0.26458332;stroke-linecap:butt;stroke-linejoin:miter;stroke-miterlimit:4;stroke-dasharray:none;stroke-dashoffset:0;stroke-opacity:1;paint-order:normal"
       id="path1045-5-2-5-06-6" />
    <path
       inkscape:connector-curvature="0"
       d="m 182.14792,72.197679 v -7.76276 h 16.26502 v 0 7.76276 m 0,-15.76478 v 8.00202 m -16.26502,0 v -8.00202"
       style="opacity:1;fill:none;fill-opacity:1;stroke:#ff0000;stroke-width:0.26458332;stroke-linecap:butt;stroke-linejoin:miter;stroke-miterlimit:4;stroke-dasharray:none;stroke-dashoffset:0;stroke-opacity:1;paint-order:normal"
       id="path6592-2-6-1" />
    <path
       inkscape:connector-curvature="0"
       d="m 198.41294,72.697899 v 8.00202 m -16.26502,0 v -8.00202 m 7e-5,15.76494 v -7.76276 h 16.26502 v 0 7.76276"
       style="opacity:1;fill:none;fill-opacity:1;stroke:#ff0000;stroke-width:0.26458332;stroke-linecap:butt;stroke-linejoin:miter;stroke-miterlimit:4;stroke-dasharray:none;stroke-dashoffset:0;stroke-opacity:1;paint-order:normal"
       id="path6594-9-1-7" />
    <path
       inkscape:connector-curvature="0"
       id="path6592-2-7-5"
       d="m 182.14798,110.72529 v -7.76276 H 198.413 v 0 7.76276"
       style="opacity:1;fill:none;fill-opacity:1;stroke:#ff0000;stroke-width:0.26458332;stroke-linecap:butt;stroke-linejoin:miter;stroke-miterlimit:4;stroke-dasharray:none;stroke-dashoffset:0;stroke-opacity:1;paint-order:normal" />
    <path
       inkscape:connector-curvature="0"
       d="m 182.14798,126.99029 v -7.76276 H 198.413 v 0 7.76276 m 0,-15.76478 v 8.00202 m -16.26502,0 v -8.00202"
       style="opacity:1;fill:none;fill-opacity:1;stroke:#ff0000;stroke-width:0.26458332;stroke-linecap:butt;stroke-linejoin:miter;stroke-miterlimit:4;stroke-dasharray:none;stroke-dashoffset:0;stroke-opacity:1;paint-order:normal"
       id="path6592-2-2-4" />
    <path
       inkscape:connector-curvature="0"
       d="m 198.413,127.49051 v 8.00202 m -16.26502,0 v -8.00202 m 16.26502,16.00423 v -8.00202 h -16.26503 v 8.00202"
       style="opacity:1;fill:none;fill-opacity:1;stroke:#ff0000;stroke-width:0.26458332;stroke-linecap:butt;stroke-linejoin:miter;stroke-miterlimit:4;stroke-dasharray:none;stroke-dashoffset:0;stroke-opacity:1;paint-order:normal"
       id="path6594-9-3-1" />
    <path
       inkscape:connector-curvature="0"
       id="path6592-2-5-5"
       d="m 182.14793,165.52043 v -7.76276 h 16.26502 v 0 7.76276"
       style="opacity:1;fill:none;fill-opacity:1;stroke:#ff0000;stroke-width:0.26458332;stroke-linecap:butt;stroke-linejoin:miter;stroke-miterlimit:4;stroke-dasharray:none;stroke-dashoffset:0;stroke-opacity:1;paint-order:normal" />
    <path
       inkscape:connector-curvature="0"
       d="m 182.14793,181.78543 v -7.76276 h 16.26502 v 0 7.76276 m 0,-15.76478 v 8.00202 m -16.26502,0 v -8.00202"
       style="opacity:1;fill:none;fill-opacity:1;stroke:#ff0000;stroke-width:0.26458332;stroke-linecap:butt;stroke-linejoin:miter;stroke-miterlimit:4;stroke-dasharray:none;stroke-dashoffset:0;stroke-opacity:1;paint-order:normal"
       id="path6592-2-9-7" />
    <path
       inkscape:connector-curvature="0"
       d="m 182.14792,198.0504 v -7.76276 h 16.26503 v 0 7.76276 m 0,-15.76475 v 8.00202 m -16.26502,0 v -8.00202"
       style="opacity:1;fill:none;fill-opacity:1;stroke:#ff0000;stroke-width:0.26458332;stroke-linecap:butt;stroke-linejoin:miter;stroke-miterlimit:4;stroke-dasharray:none;stroke-dashoffset:0;stroke-opacity:1;paint-order:normal"
       id="path6592-2-61-3" />
    <path
       inkscape:connector-curvature="0"
       d="m 182.14793,214.31539 v -7.76276 h 16.26502 v 0 7.76276 m 0,-15.76477 v 8.00202 m -16.26503,0 v -8.00202"
       style="opacity:1;fill:none;fill-opacity:1;stroke:#ff0000;stroke-width:0.26458332;stroke-linecap:butt;stroke-linejoin:miter;stroke-miterlimit:4;stroke-dasharray:none;stroke-dashoffset:0;stroke-opacity:1;paint-order:normal"
       id="path6592-2-3-8" />
    <path
       inkscape:connector-curvature="0"
       d="m 182.14793,230.58039 v -7.76276 h 16.26502 v 0 7.76276 m 0,-15.76478 v 8.00202 m -16.26502,0 v -8.00202"
       style="opacity:1;fill:none;fill-opacity:1;stroke:#ff0000;stroke-width:0.26458332;stroke-linecap:butt;stroke-linejoin:miter;stroke-miterlimit:4;stroke-dasharray:none;stroke-dashoffset:0;stroke-opacity:1;paint-order:normal"
       id="path6592-2-78-1" />
    <path
       inkscape:connector-curvature="0"
       d="m 198.41295,231.08061 v 8.00202 m -16.26502,0 v -8.00202 m 16.26507,15.76468 v -7.76276 h -16.26503 v 0 7.76276"
       style="opacity:1;fill:none;fill-opacity:1;stroke:#ff0000;stroke-width:0.26458332;stroke-linecap:butt;stroke-linejoin:miter;stroke-miterlimit:4;stroke-dasharray:none;stroke-dashoffset:0;stroke-opacity:1;paint-order:normal"
       id="path6594-9-4-8" />
    <path
       inkscape:connector-curvature="0"
       id="path6592-2-0-6"
       d="M 159.88545,17.400287 V 9.6375269 h 16.26502 v 0 7.7627601"
       style="opacity:1;fill:none;fill-opacity:1;stroke:#ff0000;stroke-width:0.26458332;stroke-linecap:butt;stroke-linejoin:miter;stroke-miterlimit:4;stroke-dasharray:none;stroke-dashoffset:0;stroke-opacity:1;paint-order:normal" />
    <path
       inkscape:connector-curvature="0"
       d="m 159.88545,33.665285 v -7.76276 h 16.26502 v 0 7.76276 m 0,-15.76478 v 8.00202 m -16.26502,0 v -8.00202"
       style="opacity:1;fill:none;fill-opacity:1;stroke:#ff0000;stroke-width:0.26458332;stroke-linecap:butt;stroke-linejoin:miter;stroke-miterlimit:4;stroke-dasharray:none;stroke-dashoffset:0;stroke-opacity:1;paint-order:normal"
       id="path6592-2-06-3" />
    <path
       inkscape:connector-curvature="0"
       d="m 176.15047,34.165505 v 8.00202 m -16.26502,0 v -8.00202 m 6e-5,15.76498 v -7.76276 h 16.26502 v 0 7.76276"
       style="opacity:1;fill:none;fill-opacity:1;stroke:#ff0000;stroke-width:0.26458332;stroke-linecap:butt;stroke-linejoin:miter;stroke-miterlimit:4;stroke-dasharray:none;stroke-dashoffset:0;stroke-opacity:1;paint-order:normal"
       id="path6594-9-32-3" />
    <path
       inkscape:connector-curvature="0"
       id="path6592-2-615-8"
       d="m 159.88551,72.197841 v -7.76276 h 16.26502 v 0 7.76276"
       style="opacity:1;fill:none;fill-opacity:1;stroke:#ff0000;stroke-width:0.26458332;stroke-linecap:butt;stroke-linejoin:miter;stroke-miterlimit:4;stroke-dasharray:none;stroke-dashoffset:0;stroke-opacity:1;paint-order:normal" />
    <path
       inkscape:connector-curvature="0"
       d="m 176.15053,72.698061 v 8.00202 m -16.26502,0 v -8.00202 m 0,15.76478 v -7.76276 h 16.26502 v 0 7.76276"
       style="opacity:1;fill:none;fill-opacity:1;stroke:#ff0000;stroke-width:0.26458332;stroke-linecap:butt;stroke-linejoin:miter;stroke-miterlimit:4;stroke-dasharray:none;stroke-dashoffset:0;stroke-opacity:1;paint-order:normal"
       id="path6594-9-5-6" />
    <path
       inkscape:connector-curvature="0"
       id="path6592-2-65-4"
       d="m 159.88551,110.72528 v -7.76276 h 16.26502 v 0 7.76276"
       style="opacity:1;fill:none;fill-opacity:1;stroke:#ff0000;stroke-width:0.26458332;stroke-linecap:butt;stroke-linejoin:miter;stroke-miterlimit:4;stroke-dasharray:none;stroke-dashoffset:0;stroke-opacity:1;paint-order:normal" />
    <path
       inkscape:connector-curvature="0"
       d="m 176.15053,111.2255 v 8.00202 m -16.26502,0 v -8.00202 m 16.26506,16.00403 v -8.00202 h -16.26503 v 8.00202"
       style="opacity:1;fill:none;fill-opacity:1;stroke:#ff0000;stroke-width:0.26458332;stroke-linecap:butt;stroke-linejoin:miter;stroke-miterlimit:4;stroke-dasharray:none;stroke-dashoffset:0;stroke-opacity:1;paint-order:normal"
       id="path6594-9-6-8" />
    <path
       inkscape:connector-curvature="0"
       id="path6592-2-74-8"
       d="m 159.8855,149.25524 v -7.76276 h 16.26502 v 0 7.76276"
       style="opacity:1;fill:none;fill-opacity:1;stroke:#ff0000;stroke-width:0.26458332;stroke-linecap:butt;stroke-linejoin:miter;stroke-miterlimit:4;stroke-dasharray:none;stroke-dashoffset:0;stroke-opacity:1;paint-order:normal" />
    <path
       inkscape:connector-curvature="0"
       d="m 159.8855,165.52024 v -7.76276 h 16.26502 v 0 7.76276 m 0,-15.76478 v 8.00202 m -16.26502,0 v -8.00202"
       style="opacity:1;fill:none;fill-opacity:1;stroke:#ff0000;stroke-width:0.26458332;stroke-linecap:butt;stroke-linejoin:miter;stroke-miterlimit:4;stroke-dasharray:none;stroke-dashoffset:0;stroke-opacity:1;paint-order:normal"
       id="path6592-2-744-7" />
    <path
       inkscape:connector-curvature="0"
       d="m 159.88552,181.78522 v -7.76276 h 16.26502 v 0 7.76276 m -2e-5,-15.76476 v 8.00202 m -16.26502,0 v -8.00202"
       style="opacity:1;fill:none;fill-opacity:1;stroke:#ff0000;stroke-width:0.26458332;stroke-linecap:butt;stroke-linejoin:miter;stroke-miterlimit:4;stroke-dasharray:none;stroke-dashoffset:0;stroke-opacity:1;paint-order:normal"
       id="path6592-2-68-6" />
    <path
       inkscape:connector-curvature="0"
       d="m 159.88552,198.05022 v -7.76276 h 16.26502 v 0 7.76276 m 0,-15.76478 v 8.00202 m -16.26502,0 v -8.00202"
       style="opacity:1;fill:none;fill-opacity:1;stroke:#ff0000;stroke-width:0.26458332;stroke-linecap:butt;stroke-linejoin:miter;stroke-miterlimit:4;stroke-dasharray:none;stroke-dashoffset:0;stroke-opacity:1;paint-order:normal"
       id="path6592-2-1-3" />
    <path
       inkscape:connector-curvature="0"
       d="m 159.8855,214.3152 v -7.76276 h 16.26502 v 0 7.76276 m 2e-5,-15.76476 v 8.00202 m -16.26502,0 v -8.00202"
       style="opacity:1;fill:none;fill-opacity:1;stroke:#ff0000;stroke-width:0.26458332;stroke-linecap:butt;stroke-linejoin:miter;stroke-miterlimit:4;stroke-dasharray:none;stroke-dashoffset:0;stroke-opacity:1;paint-order:normal"
       id="path6592-2-8-3" />
    <path
       inkscape:connector-curvature="0"
       d="m 159.8855,230.5802 v -7.76276 h 16.26502 v 0 7.76276 m 0,-15.76478 v 8.00202 m -16.26502,0 v -8.00202"
       style="opacity:1;fill:none;fill-opacity:1;stroke:#ff0000;stroke-width:0.26458332;stroke-linecap:butt;stroke-linejoin:miter;stroke-miterlimit:4;stroke-dasharray:none;stroke-dashoffset:0;stroke-opacity:1;paint-order:normal"
       id="path6592-2-4-9" />
    <path
       inkscape:connector-curvature="0"
       d="m 176.15052,231.08042 v 8.00202 m -16.26502,0 v -8.00202 m 16.26502,15.76487 v -7.76276 h -16.26503 v 0 7.76276"
       style="opacity:1;fill:none;fill-opacity:1;stroke:#ff0000;stroke-width:0.26458332;stroke-linecap:butt;stroke-linejoin:miter;stroke-miterlimit:4;stroke-dasharray:none;stroke-dashoffset:0;stroke-opacity:1;paint-order:normal"
       id="path6594-9-95-2" />
    <path
       sodipodi:nodetypes="cccc"
       style="opacity:1;fill:none;fill-opacity:1;stroke:#ff0000;stroke-width:0.26458332;stroke-linecap:butt;stroke-linejoin:miter;stroke-miterlimit:4;stroke-dasharray:none;stroke-dashoffset:0;stroke-opacity:1;paint-order:normal"
       d="m 92.645909,97.657585 7.879571,-5.29e-4 0.001,20.995654 h -8.002024"
       id="path2157-8-5"
       inkscape:connector-curvature="0" />
    <path
       sodipodi:nodetypes="ccccc"
       style="opacity:1;fill:none;fill-opacity:1;stroke:#ff0000;stroke-width:0.26458332;stroke-linecap:butt;stroke-linejoin:miter;stroke-miterlimit:4;stroke-dasharray:none;stroke-dashoffset:0;stroke-opacity:1;paint-order:normal"
       d="m 92.024546,118.65281 h -7.762759 v -16.26502 l 9.8e-5,-4.730625 h 7.879985"
       id="path6598-6-3-79-94"
       inkscape:connector-curvature="0" />
    <path
       sodipodi:nodetypes="cccc"
       style="opacity:1;fill:none;fill-opacity:1;stroke:#ff0000;stroke-width:0.26458332;stroke-linecap:butt;stroke-linejoin:miter;stroke-miterlimit:4;stroke-dasharray:none;stroke-dashoffset:0;stroke-opacity:1;paint-order:normal"
       d="m 117.64681,97.657585 7.87957,-5.29e-4 10e-4,20.995654 h -8.00202"
       id="path2157-8-6-9"
       inkscape:connector-curvature="0" />
    <path
       sodipodi:nodetypes="ccccc"
       style="opacity:1;fill:none;fill-opacity:1;stroke:#ff0000;stroke-width:0.26458332;stroke-linecap:butt;stroke-linejoin:miter;stroke-miterlimit:4;stroke-dasharray:none;stroke-dashoffset:0;stroke-opacity:1;paint-order:normal"
       d="m 117.02545,118.65281 h -7.76276 v -16.26502 l 10e-5,-4.730625 h 7.87998"
       id="path6598-6-3-79-7-22"
       inkscape:connector-curvature="0" />
    <path
       sodipodi:nodetypes="cccc"
       style="opacity:1;fill:none;fill-opacity:1;stroke:#ff0000;stroke-width:0.26458332;stroke-linecap:butt;stroke-linejoin:miter;stroke-miterlimit:4;stroke-dasharray:none;stroke-dashoffset:0;stroke-opacity:1;paint-order:normal"
       d="m 92.645909,33.390561 7.879571,-5.29e-4 0.001,20.995653 h -8.002024"
       id="path2157-8-62-7"
       inkscape:connector-curvature="0" />
    <path
       sodipodi:nodetypes="ccccc"
       style="opacity:1;fill:none;fill-opacity:1;stroke:#ff0000;stroke-width:0.26458332;stroke-linecap:butt;stroke-linejoin:miter;stroke-miterlimit:4;stroke-dasharray:none;stroke-dashoffset:0;stroke-opacity:1;paint-order:normal"
       d="M 92.024546,54.385791 H 84.261787 V 38.120769 l 9.8e-5,-4.730628 h 7.879985"
       id="path6598-6-3-79-9-5"
       inkscape:connector-curvature="0" />
    <path
       sodipodi:nodetypes="cccc"
       style="opacity:1;fill:none;fill-opacity:1;stroke:#ff0000;stroke-width:0.26458332;stroke-linecap:butt;stroke-linejoin:miter;stroke-miterlimit:4;stroke-dasharray:none;stroke-dashoffset:0;stroke-opacity:1;paint-order:normal"
       d="m 117.64681,33.390561 7.87957,-5.29e-4 10e-4,20.995653 h -8.00202"
       id="path2157-8-6-2-8"
       inkscape:connector-curvature="0" />
    <path
       sodipodi:nodetypes="ccccc"
       style="opacity:1;fill:none;fill-opacity:1;stroke:#ff0000;stroke-width:0.26458332;stroke-linecap:butt;stroke-linejoin:miter;stroke-miterlimit:4;stroke-dasharray:none;stroke-dashoffset:0;stroke-opacity:1;paint-order:normal"
       d="m 117.02545,54.385791 h -7.76276 V 38.120769 l 10e-5,-4.730628 h 7.87998"
       id="path6598-6-3-79-7-7-1"
       inkscape:connector-curvature="0" />
    <path
       sodipodi:nodetypes="cccc"
       style="opacity:1;fill:none;fill-opacity:1;stroke:#ff0000;stroke-width:0.26458332;stroke-linecap:butt;stroke-linejoin:miter;stroke-miterlimit:4;stroke-dasharray:none;stroke-dashoffset:0;stroke-opacity:1;paint-order:normal"
       d="m 92.645909,161.92461 7.879571,-5.3e-4 0.001,20.99566 h -8.002024"
       id="path2157-8-3-9"
       inkscape:connector-curvature="0" />
    <path
       sodipodi:nodetypes="ccccc"
       style="opacity:1;fill:none;fill-opacity:1;stroke:#ff0000;stroke-width:0.26458332;stroke-linecap:butt;stroke-linejoin:miter;stroke-miterlimit:4;stroke-dasharray:none;stroke-dashoffset:0;stroke-opacity:1;paint-order:normal"
       d="m 92.024546,182.91984 h -7.762759 v -16.26502 l 9.8e-5,-4.73063 h 7.879985"
       id="path6598-6-3-79-6-3"
       inkscape:connector-curvature="0" />
    <path
       sodipodi:nodetypes="cccc"
       style="opacity:1;fill:none;fill-opacity:1;stroke:#ff0000;stroke-width:0.26458332;stroke-linecap:butt;stroke-linejoin:miter;stroke-miterlimit:4;stroke-dasharray:none;stroke-dashoffset:0;stroke-opacity:1;paint-order:normal"
       d="m 117.64681,161.92461 7.87957,-5.3e-4 10e-4,20.99566 h -8.00202"
       id="path2157-8-6-6-8"
       inkscape:connector-curvature="0" />
    <path
       sodipodi:nodetypes="ccccc"
       style="opacity:1;fill:none;fill-opacity:1;stroke:#ff0000;stroke-width:0.26458332;stroke-linecap:butt;stroke-linejoin:miter;stroke-miterlimit:4;stroke-dasharray:none;stroke-dashoffset:0;stroke-opacity:1;paint-order:normal"
       d="m 117.02545,182.91984 h -7.76276 v -16.26502 l 10e-5,-4.73063 h 7.87998"
       id="path6598-6-3-79-7-2-0"
       inkscape:connector-curvature="0" />
  </g>
</svg>
