<?xml version="1.0" encoding="UTF-8" standalone="no"?>
<!-- Created with Inkscape (http://www.inkscape.org/) -->

<svg
   xmlns:dc="http://purl.org/dc/elements/1.1/"
   xmlns:cc="http://creativecommons.org/ns#"
   xmlns:rdf="http://www.w3.org/1999/02/22-rdf-syntax-ns#"
   xmlns:svg="http://www.w3.org/2000/svg"
   xmlns="http://www.w3.org/2000/svg"
   xmlns:sodipodi="http://sodipodi.sourceforge.net/DTD/sodipodi-0.dtd"
   xmlns:inkscape="http://www.inkscape.org/namespaces/inkscape"
   width="8.25in"
   height="10.5in"
   viewBox="0 0 209.54999 266.70001"
   version="1.1"
   id="svg1288"
   inkscape:version="0.92.5 (0.92.5+68)"
   sodipodi:docname="punchout-4-cut.svg"
   inkscape:export-filename="./punchout-4-cut.png"
   inkscape:export-xdpi="300"
   inkscape:export-ydpi="300">
  <defs
     id="defs1282">
    <inkscape:path-effect
       effect="spiro"
       id="path-effect2802"
       is_visible="true" />
    <inkscape:path-effect
       effect="spiro"
       id="path-effect2802-3"
       is_visible="true" />
  </defs>
  <sodipodi:namedview
     id="base"
     pagecolor="#ffffff"
     bordercolor="#666666"
     borderopacity="1.0"
     inkscape:pageopacity="0.0"
     inkscape:pageshadow="2"
     inkscape:zoom="0.56727767"
     inkscape:cx="149.20487"
     inkscape:cy="638.89788"
     inkscape:document-units="mm"
     inkscape:current-layer="layer3"
     showgrid="false"
     units="in"
     inkscape:window-width="1875"
     inkscape:window-height="1056"
     inkscape:window-x="45"
     inkscape:window-y="24"
     inkscape:window-maximized="1"
     inkscape:snap-global="false"
     showguides="false">
    <inkscape:grid
       type="xygrid"
       id="grid2338" />
  </sodipodi:namedview>
  <metadata
     id="metadata1285">
    <rdf:RDF>
      <cc:Work
         rdf:about="">
        <dc:format>image/svg+xml</dc:format>
        <dc:type
           rdf:resource="http://purl.org/dc/dcmitype/StillImage" />
        <dc:title></dc:title>
      </cc:Work>
    </rdf:RDF>
  </metadata>
  <g
     inkscape:groupmode="layer"
     id="layer3"
     inkscape:label="cut"
     style="display:inline">
    <path
       style="opacity:1;fill:none;fill-opacity:1;stroke:#ff0000;stroke-width:0.26458332;stroke-linecap:butt;stroke-linejoin:miter;stroke-miterlimit:4;stroke-dasharray:none;stroke-dashoffset:0;stroke-opacity:1;paint-order:normal"
       d="m 175.93847,52.80972 v 7.76276 h -16.26502 v 0 -7.76276"
       id="path913-6-2-3"
       inkscape:connector-curvature="0" />
    <path
       style="opacity:1;fill:none;fill-opacity:1;stroke:#ff0000;stroke-width:0.26458332;stroke-linecap:butt;stroke-linejoin:miter;stroke-miterlimit:4;stroke-dasharray:none;stroke-dashoffset:0;stroke-opacity:1;paint-order:normal"
       d="m 198.1992,52.80972 v 7.76276 h -16.26502 v 0 -7.76276"
       id="path913-3-1-5"
       inkscape:connector-curvature="0" />
    <path
       style="opacity:1;fill:none;fill-opacity:1;stroke:#ff0000;stroke-width:0.26458332;stroke-linecap:butt;stroke-linejoin:miter;stroke-miterlimit:4;stroke-dasharray:none;stroke-dashoffset:0;stroke-opacity:1;paint-order:normal"
       d="m 175.93848,107.60655 v 7.76276 h -16.26503 v 0 -7.76276"
       id="path913-6-0-7-6"
       inkscape:connector-curvature="0" />
    <path
       style="opacity:1;fill:none;fill-opacity:1;stroke:#ff0000;stroke-width:0.26458332;stroke-linecap:butt;stroke-linejoin:miter;stroke-miterlimit:4;stroke-dasharray:none;stroke-dashoffset:0;stroke-opacity:1;paint-order:normal"
       d="m 198.1992,107.60654 v 7.76276 h -16.26502 v 0 -7.76276"
       id="path913-3-6-6-2"
       inkscape:connector-curvature="0" />
    <path
       inkscape:connector-curvature="0"
       d="m 175.93851,91.102284 v 8.00202 m -16.26502,0 v -8.00202 m -4e-5,16.004046 v -8.002016 h 16.26503 v 8.002016"
       style="opacity:1;fill:none;fill-opacity:1;stroke:#ff0000;stroke-width:0.26458332;stroke-linecap:butt;stroke-linejoin:miter;stroke-miterlimit:4;stroke-dasharray:none;stroke-dashoffset:0;stroke-opacity:1;paint-order:normal"
       id="path6594-9-95-744-17-9" />
    <path
       inkscape:connector-curvature="0"
       d="m 198.19923,91.102284 v 8.00202 m -16.26502,0 v -8.00202 m -3e-5,16.004026 v -8.002016 h 16.26502 v 8.002016"
       style="opacity:1;fill:none;fill-opacity:1;stroke:#ff0000;stroke-width:0.26458332;stroke-linecap:butt;stroke-linejoin:miter;stroke-miterlimit:4;stroke-dasharray:none;stroke-dashoffset:0;stroke-opacity:1;paint-order:normal"
       id="path6594-9-95-744-26-1" />
    <path
       inkscape:connector-curvature="0"
       id="path6592-2-4-54-06-2"
       d="m 159.67349,74.337063 v -7.76276 h 16.26502 v 0 7.76276"
       style="opacity:1;fill:none;fill-opacity:1;stroke:#ff0000;stroke-width:0.26458332;stroke-linecap:butt;stroke-linejoin:miter;stroke-miterlimit:4;stroke-dasharray:none;stroke-dashoffset:0;stroke-opacity:1;paint-order:normal" />
    <path
       inkscape:connector-curvature="0"
       d="m 175.93851,74.837283 v 8.00202 m -16.26502,0 v -8.00202 m 0,15.76478 v -7.76276 h 16.26502 v 0 7.76276"
       style="opacity:1;fill:none;fill-opacity:1;stroke:#ff0000;stroke-width:0.26458332;stroke-linecap:butt;stroke-linejoin:miter;stroke-miterlimit:4;stroke-dasharray:none;stroke-dashoffset:0;stroke-opacity:1;paint-order:normal"
       id="path6594-9-95-744-15-7" />
    <path
       inkscape:connector-curvature="0"
       id="path6592-2-4-54-90-0"
       d="m 181.93422,74.337055 v -7.76276 h 16.26502 v 0 7.76276"
       style="opacity:1;fill:none;fill-opacity:1;stroke:#ff0000;stroke-width:0.26458332;stroke-linecap:butt;stroke-linejoin:miter;stroke-miterlimit:4;stroke-dasharray:none;stroke-dashoffset:0;stroke-opacity:1;paint-order:normal" />
    <path
       inkscape:connector-curvature="0"
       d="m 198.19924,74.837275 v 8.00202 m -16.26502,0 v -8.00202 m -1e-5,15.76479 v -7.76276 h 16.26502 v 0 7.76276"
       style="opacity:1;fill:none;fill-opacity:1;stroke:#ff0000;stroke-width:0.26458332;stroke-linecap:butt;stroke-linejoin:miter;stroke-miterlimit:4;stroke-dasharray:none;stroke-dashoffset:0;stroke-opacity:1;paint-order:normal"
       id="path6594-9-95-744-91-9" />
    <path
       inkscape:connector-curvature="0"
       d="m 175.93849,36.305463 v 8.00202 m -16.26502,0 v -8.00202 m -2e-5,16.00404 v -8.00202 h 16.26502 v 8.00202"
       style="opacity:1;fill:none;fill-opacity:1;stroke:#ff0000;stroke-width:0.26458332;stroke-linecap:butt;stroke-linejoin:miter;stroke-miterlimit:4;stroke-dasharray:none;stroke-dashoffset:0;stroke-opacity:1;paint-order:normal"
       id="path6594-9-95-744-159-3" />
    <path
       inkscape:connector-curvature="0"
       d="m 198.19921,36.305463 v 8.00202 m -16.26502,0 v -8.00202 m -1e-5,16.00404 v -8.00202 h 16.26502 v 8.00202"
       style="opacity:1;fill:none;fill-opacity:1;stroke:#ff0000;stroke-width:0.26458332;stroke-linecap:butt;stroke-linejoin:miter;stroke-miterlimit:4;stroke-dasharray:none;stroke-dashoffset:0;stroke-opacity:1;paint-order:normal"
       id="path6594-9-95-744-3-6" />
    <path
       inkscape:connector-curvature="0"
       id="path6592-2-4-54-56-0"
       d="m 159.67347,19.540244 v -7.76276 h 16.26502 v 0 7.76276"
       style="opacity:1;fill:none;fill-opacity:1;stroke:#ff0000;stroke-width:0.26458332;stroke-linecap:butt;stroke-linejoin:miter;stroke-miterlimit:4;stroke-dasharray:none;stroke-dashoffset:0;stroke-opacity:1;paint-order:normal" />
    <path
       inkscape:connector-curvature="0"
       d="m 175.93849,20.040464 v 8.00202 m -16.26502,0 v -8.00202 m 0,15.76478 v -7.76276 h 16.26502 v 0 7.76276"
       style="opacity:1;fill:none;fill-opacity:1;stroke:#ff0000;stroke-width:0.26458332;stroke-linecap:butt;stroke-linejoin:miter;stroke-miterlimit:4;stroke-dasharray:none;stroke-dashoffset:0;stroke-opacity:1;paint-order:normal"
       id="path6594-9-95-744-39-6" />
    <path
       inkscape:connector-curvature="0"
       id="path6592-2-4-54-29-2"
       d="m 181.93419,19.540245 v -7.76276 h 16.26502 v 0 7.76276"
       style="opacity:1;fill:none;fill-opacity:1;stroke:#ff0000;stroke-width:0.26458332;stroke-linecap:butt;stroke-linejoin:miter;stroke-miterlimit:4;stroke-dasharray:none;stroke-dashoffset:0;stroke-opacity:1;paint-order:normal" />
    <path
       inkscape:connector-curvature="0"
       d="m 198.19921,20.040465 v 8.00202 m -16.26502,0 v -8.00202 m 0,15.76478 v -7.76276 h 16.26502 v 0 7.76276"
       style="opacity:1;fill:none;fill-opacity:1;stroke:#ff0000;stroke-width:0.26458332;stroke-linecap:butt;stroke-linejoin:miter;stroke-miterlimit:4;stroke-dasharray:none;stroke-dashoffset:0;stroke-opacity:1;paint-order:normal"
       id="path6594-9-95-744-390-6" />
    <path
       style="display:inline;fill:none;stroke:#ff0000;stroke-width:0.26458332;stroke-linecap:butt;stroke-linejoin:miter;stroke-miterlimit:4;stroke-dasharray:none;stroke-opacity:1"
       d="m 196.9869,199.44886 1e-5,55.80272 -2.25608,-7e-5 -6.47447,-7.9e-4 c -0.88593,0 -1.2026,-0.41354 -0.98443,-1.29553 l 1.19855,-5.15264 c 0.21816,-0.88198 -0.0985,-1.29553 -0.98444,-1.29553 h -13.26468 c -0.88593,0 -1.2026,0.41355 -0.98443,1.29553 l 1.19855,5.15264 c 0.21816,0.88199 -0.0985,1.29543 -0.98444,1.29555 l -6.49953,7.9e-4 -2.2296,-2.7e-4 v 0 0 -19.33646"
       id="path1678-1"
       inkscape:connector-curvature="0"
       sodipodi:nodetypes="cccccscsccsccccc" />
    <path
       style="display:inline;opacity:1;fill:none;fill-opacity:1;stroke:#ff0000;stroke-width:0.26458332;stroke-linecap:butt;stroke-linejoin:miter;stroke-miterlimit:4;stroke-dasharray:none;stroke-dashoffset:0;stroke-opacity:1;paint-order:normal"
       d="m 180.49607,222.99049 h -7.76276 v -16.26506 0 h 7.76276"
       id="path913-38-2-93-4-9-1-8"
       inkscape:connector-curvature="0" />
    <path
       style="display:inline;opacity:1;fill:none;fill-opacity:1;stroke:#ff0000;stroke-width:0.26458332;stroke-linecap:butt;stroke-linejoin:miter;stroke-miterlimit:4;stroke-dasharray:none;stroke-dashoffset:0;stroke-opacity:1;paint-order:normal"
       d="m 180.99629,206.72543 h 8.00202 v 16.26506 h -8.00202"
       id="path909-5-3-74-3-4-2-7"
       inkscape:connector-curvature="0" />
    <path
       id="path1032-3-8-3-2-75-7-9-9"
       style="display:inline;fill:none;stroke:#ff0000;stroke-width:0.26458332;stroke-linecap:butt;stroke-linejoin:miter;stroke-miterlimit:4;stroke-dasharray:none;stroke-opacity:1"
       d="m 196.98691,146.57357 v 44.42065"
       inkscape:connector-curvature="0"
       sodipodi:nodetypes="cc" />
    <path
       style="display:inline;fill:none;stroke:#ff0000;stroke-width:0.26458332;stroke-linecap:butt;stroke-linejoin:miter;stroke-miterlimit:4;stroke-dasharray:none;stroke-opacity:1"
       d="m 164.72191,182.09964 v -55.36278 l 2.25608,7e-5 6.47447,7.9e-4 c 0.88593,0 1.2026,0.41355 0.98443,1.29552 l -1.19855,5.15266 c -0.21816,0.88197 0.0985,1.29553 0.98444,1.29553 h 13.26468 c 0.88593,0 1.2026,-0.41356 0.98443,-1.29553 l -1.19855,-5.15266 c -0.21816,-0.88197 0.0985,-1.29541 0.98444,-1.29554 l 6.49953,-7.9e-4 2.2296,2.6e-4 v 0 0 19.33646"
       id="path1657-2"
       inkscape:connector-curvature="0"
       sodipodi:nodetypes="cccccscsccsccccc" />
    <path
       id="path1038-2-0-0-8-2-6-0-0"
       style="display:inline;fill:none;stroke:#ff0000;stroke-width:0.26458332;stroke-linecap:butt;stroke-linejoin:miter;stroke-miterlimit:4;stroke-dasharray:none;stroke-opacity:1"
       d="m 164.72191,190.99422 v -8.39436 m 0,52.81501 v -44.42065 h 32.265 l -1e-5,7.95493"
       inkscape:connector-curvature="0"
       sodipodi:nodetypes="cccccc" />
    <path
       style="display:inline;opacity:1;fill:none;fill-opacity:1;stroke:#ff0000;stroke-width:0.26458332;stroke-linecap:butt;stroke-linejoin:miter;stroke-miterlimit:4;stroke-dasharray:none;stroke-dashoffset:0;stroke-opacity:1;paint-order:normal"
       d="m 181.21275,158.99795 h 7.76276 v 16.26506 0 h -7.76276"
       id="path913-38-2-93-4-9-1-4-2"
       inkscape:connector-curvature="0" />
    <path
       style="display:inline;opacity:1;fill:none;fill-opacity:1;stroke:#ff0000;stroke-width:0.26458332;stroke-linecap:butt;stroke-linejoin:miter;stroke-miterlimit:4;stroke-dasharray:none;stroke-dashoffset:0;stroke-opacity:1;paint-order:normal"
       d="m 180.71253,175.26301 h -8.00202 v -16.26506 h 8.00202"
       id="path909-5-3-74-3-4-2-8-3"
       inkscape:connector-curvature="0" />
    <path
       style="display:inline;opacity:1;fill:none;fill-opacity:1;stroke:#ff0000;stroke-width:0.26458332;stroke-linecap:butt;stroke-linejoin:miter;stroke-miterlimit:4;stroke-dasharray:none;stroke-dashoffset:0;stroke-opacity:1;paint-order:normal"
       d="m 51.427411,174.49656 v -7.76276 h 16.26506 v 0 7.76276"
       id="path913-38-2-93-4-9-7"
       inkscape:connector-curvature="0" />
    <path
       style="display:inline;opacity:1;fill:none;fill-opacity:1;stroke:#ff0000;stroke-width:0.26458332;stroke-linecap:butt;stroke-linejoin:miter;stroke-miterlimit:4;stroke-dasharray:none;stroke-dashoffset:0;stroke-opacity:1;paint-order:normal"
       d="m 67.692471,174.99678 v 8.00202 h -16.26506 v -8.00202"
       id="path909-5-3-74-3-4-5"
       inkscape:connector-curvature="0" />
    <path
       id="path1829-9"
       style="display:inline;fill:none;stroke:#ff0000;stroke-width:0.26458332;stroke-linecap:butt;stroke-linejoin:miter;stroke-miterlimit:4;stroke-dasharray:none;stroke-opacity:1"
       d="m 19.166152,204.19565 1.7e-4,-13.20824 h 64.265253 l -2.46e-4,64.26429 v 0 0 h -11.94534 m -52.319668,-64.2643 7e-5,-2.25608 7.14e-4,-6.47447 c 0,-0.88593 0.41354,-1.2026 1.29552,-0.98443 l 5.15265,1.19855 c 0.881981,0.21816 1.29553,-0.0985 1.29553,-0.98444 v -13.26468 c 0,-0.88593 -0.413549,-1.2026 -1.29553,-0.98443 l -5.15265,1.19855 c -0.88198,0.21816 -1.29542,-0.0985 -1.29554,-0.98444 l -8.73e-4,-6.49953 3.71e-4,-2.2296 v 0 0 h 19.507425"
       inkscape:connector-curvature="0"
       sodipodi:nodetypes="ccccccccccccssccsccccc" />
    <path
       style="display:inline;fill:none;stroke:#ff0000;stroke-width:0.26458332;stroke-linecap:butt;stroke-linejoin:miter;stroke-miterlimit:4;stroke-dasharray:none;stroke-opacity:1"
       d="M 70.985763,255.2517 H 19.16633 l -5.3e-4,-18.14864 0.01021,-6.58121 c 0.0064,-0.88592 -0.413559,-1.2026 -1.29554,-0.98444 l -5.152647,1.19855 c -0.881983,0.21817 -1.295532,-0.0985 -1.295532,-0.98443 l 5e-6,-6.63182 -5e-6,-6.63286 c 0,-0.88594 0.413549,-1.2026 1.295532,-0.98444 l 5.152647,1.19855 c 0.881981,0.21817 1.295519,-0.0985 1.295519,-0.98443 l -0.0099,-6.56054 5.7e-5,-4.46063"
       id="path1032-2-1-2"
       inkscape:connector-curvature="0"
       sodipodi:nodetypes="ccccccscsccccc" />
    <path
       inkscape:connector-curvature="0"
       style="display:inline;opacity:1;fill:none;fill-opacity:1;stroke:#ff0000;stroke-width:0.26458332;stroke-linecap:butt;stroke-linejoin:miter;stroke-miterlimit:4;stroke-dasharray:none;stroke-dashoffset:0;stroke-opacity:1;paint-order:normal"
       d="m 106.05546,205.58587 v -8.06144 0 h 32.26501 v 8.06144"
       id="path1049-2-7-7-6-8-8-2" />
    <path
       inkscape:connector-curvature="0"
       style="display:inline;opacity:1;fill:none;fill-opacity:1;stroke:#ff0000;stroke-width:0.26458332;stroke-linecap:butt;stroke-linejoin:miter;stroke-miterlimit:4;stroke-dasharray:none;stroke-dashoffset:0;stroke-opacity:1;paint-order:normal"
       d="M 138.32046,206.08609 V 218.52 H 122.066 v -4.7302 l -16.01054,-3.7e-4 v -7.70333"
       id="path1045-9-6-5-2-9-4-8"
       sodipodi:nodetypes="cccccc" />
    <path
       id="path1691-8-5-7-9"
       style="display:inline;fill:none;stroke:#ff0000;stroke-width:0.26458332;stroke-linecap:butt;stroke-linejoin:miter;stroke-miterlimit:4;stroke-dasharray:none;stroke-opacity:1"
       d="m 83.431575,190.9874 v 0 0 H 94.847743 M 83.423652,175.24921 v 15.73819"
       inkscape:connector-curvature="0"
       sodipodi:nodetypes="cccccc" />
    <path
       id="path1036-97-5-5-7"
       style="display:inline;fill:none;stroke:#ff0000;stroke-width:0.26458332;stroke-linecap:butt;stroke-linejoin:miter;stroke-miterlimit:4;stroke-dasharray:none;stroke-opacity:1"
       d="m 136.12263,255.25168 -52.691301,1e-5"
       inkscape:connector-curvature="0"
       sodipodi:nodetypes="cc" />
    <path
       id="path1749-3"
       style="display:inline;fill:none;stroke:#ff0000;stroke-width:0.26458332;stroke-linecap:butt;stroke-linejoin:miter;stroke-miterlimit:4;stroke-dasharray:none;stroke-opacity:1"
       d="m 95.347971,190.9874 h 52.348599 l 5.3e-4,18.14864 -0.0102,6.58121 c -0.006,0.88592 0.41355,1.2026 1.29554,0.98444 l 5.15264,-1.19855 c 0.88199,-0.21817 1.29553,0.0985 1.29553,0.98443 v 6.63182 6.63286 c 0,0.88594 -0.41354,1.2026 -1.29553,0.98444 l -5.15264,-1.19855 c -0.88199,-0.21817 -1.29553,0.0985 -1.29553,0.98443 l 0.01,6.56054 -2.4e-4,18.16858 h -11.07373"
       inkscape:connector-curvature="0"
       sodipodi:nodetypes="ccccccscscccccc" />
    <path
       style="display:inline;fill:none;stroke:#ff0000;stroke-width:0.26458332;stroke-linecap:butt;stroke-linejoin:miter;stroke-miterlimit:4;stroke-dasharray:none;stroke-opacity:1"
       d="m 127.66,158.7224 h 20.03685 l -7e-5,2.25608 -8e-4,6.47447 c 0,0.88593 -0.41354,1.2026 -1.29552,0.98443 l -5.15265,-1.19855 c -0.88198,-0.21816 -1.29553,0.0985 -1.29553,0.98444 v 13.26468 c 0,0.88593 0.41355,1.2026 1.29553,0.98443 l 5.15265,-1.19855 c 0.88198,-0.21816 1.29542,0.0985 1.29554,0.98444 l 0.001,6.49953 -2.6e-4,2.2296 v 0 0"
       id="path1036-6-5-8-8-9-6-6"
       inkscape:connector-curvature="0"
       sodipodi:nodetypes="ccccccssccccccc" />
    <path
       id="path1038-2-0-0-8-2-2-1"
       style="display:inline;fill:none;stroke:#ff0000;stroke-width:0.26458332;stroke-linecap:butt;stroke-linejoin:miter;stroke-miterlimit:4;stroke-dasharray:none;stroke-opacity:1"
       d="M 83.43949,158.7224 H 127.16 m -87.985999,0 h 44.24968 v 16.02659"
       inkscape:connector-curvature="0"
       sodipodi:nodetypes="ccccc" />
    <path
       style="display:inline;opacity:1;fill:none;fill-opacity:1;stroke:#ff0000;stroke-width:0.26458332;stroke-linecap:butt;stroke-linejoin:miter;stroke-miterlimit:4;stroke-dasharray:none;stroke-dashoffset:0;stroke-opacity:1;paint-order:normal"
       d="M 115.43576,175.21324 V 182.976 H 99.1707 v 0 -7.76276"
       id="path913-38-2-93-4-9-6-2"
       inkscape:connector-curvature="0" />
    <path
       style="display:inline;opacity:1;fill:none;fill-opacity:1;stroke:#ff0000;stroke-width:0.26458332;stroke-linecap:butt;stroke-linejoin:miter;stroke-miterlimit:4;stroke-dasharray:none;stroke-dashoffset:0;stroke-opacity:1;paint-order:normal"
       d="M 99.1707,174.71302 V 166.711 h 16.26506 v 8.00202"
       id="path909-5-3-74-3-4-1-9"
       inkscape:connector-curvature="0" />
    <path
       inkscape:connector-curvature="0"
       style="display:inline;opacity:1;fill:none;fill-opacity:1;stroke:#ff0000;stroke-width:0.26458332;stroke-linecap:butt;stroke-linejoin:miter;stroke-miterlimit:4;stroke-dasharray:none;stroke-dashoffset:0;stroke-opacity:1;paint-order:normal"
       d="m 60.807442,240.64627 v 8.06144 0 h -32.26501 v -8.06144"
       id="path1049-2-7-7-6-8-8-7-3" />
    <path
       inkscape:connector-curvature="0"
       style="display:inline;opacity:1;fill:none;fill-opacity:1;stroke:#ff0000;stroke-width:0.26458332;stroke-linecap:butt;stroke-linejoin:miter;stroke-miterlimit:4;stroke-dasharray:none;stroke-dashoffset:0;stroke-opacity:1;paint-order:normal"
       d="m 28.542442,240.14605 v -12.43391 h 16.25446 v 4.7302 l 16.01054,3.7e-4 v 7.70333"
       id="path1045-9-6-5-2-9-4-5-1"
       sodipodi:nodetypes="cccccc" />
    <path
       inkscape:connector-curvature="0"
       id="path2006-2-9"
       d="m 12.401705,136.30901 6.88e-4,11.42455 9.075467,2.7e-4 9.075468,-0.001 h 6.577034 c 0.885944,0 1.2026,-0.39405 0.984435,-1.27603 l -1.198547,-5.15264 c -0.218165,-0.88198 0.09849,-1.29553 0.984435,-1.29553 h 13.264677 c 0.885944,0 1.2026,0.41355 0.984438,1.29553 l -1.198547,5.15264 c -0.218168,0.88198 0.09849,1.27592 0.984432,1.27603 l 6.578389,7.9e-4 8.202081,-1.1e-4"
       style="display:inline;fill:none;stroke:#ff0000;stroke-width:0.26499999;stroke-linecap:butt;stroke-linejoin:miter;stroke-miterlimit:4;stroke-dasharray:none;stroke-opacity:1"
       sodipodi:nodetypes="ccccsccssccccc" />
    <path
       sodipodi:nodetypes="cccccsscccccccccssccccc"
       inkscape:connector-curvature="0"
       style="display:inline;fill:none;stroke:#ff0000;stroke-width:0.26499999;stroke-linecap:butt;stroke-linejoin:miter;stroke-miterlimit:4;stroke-dasharray:none;stroke-opacity:1"
       d="m 66.716183,83.467906 -8.276106,-5.29e-4 -6.5044,-1.23e-4 c -0.885944,2.64e-4 -1.2026,0.413559 -0.984438,1.295541 l 1.198547,5.152641 c 0.218168,0.881982 -0.09849,1.295528 -0.984432,1.295528 H 37.900677 c -0.885944,0 -1.2026,-0.413546 -0.984438,-1.295528 l 1.19855,-5.152641 c 0.218165,-0.881982 -0.09849,-1.295529 -0.984435,-1.295529 l -6.502816,-2.91e-4 -18.226234,9.8e-5 -5.03e-4,18.230287 1.59e-4,6.49317 c 2.64e-4,0.88595 0.413559,1.2026 1.295541,0.98444 l 5.152641,-1.19855 c 0.881982,-0.21816 1.295528,0.0985 1.295528,0.98444 -1e-6,4.42156 -1e-6,8.84311 0,13.26467 0,0.88594 -0.413546,1.20259 -1.295528,0.98443 l -5.152641,-1.19855 c -0.881982,-0.21816 -1.295528,0.0985 -1.295528,0.98444 l 3.18e-4,6.50277 3.96e-4,6.31017"
       id="path6534-0-4" />
    <path
       sodipodi:nodetypes="ccccccsscccccc"
       inkscape:connector-curvature="0"
       style="display:inline;fill:none;stroke:#ff0000;stroke-width:0.26499999;stroke-linecap:butt;stroke-linejoin:miter;stroke-miterlimit:4;stroke-dasharray:none;stroke-opacity:1"
       d="m 67.215844,83.467906 73.451386,5.3e-5 1e-4,18.142381 -0.0168,6.58018 c -0.0105,0.88587 0.41356,1.20259 1.29554,0.98443 l 5.15265,-1.19854 c 0.88198,-0.21817 1.29552,0.0985 1.29552,0.98443 v 13.26468 c 0,0.88594 -0.41354,1.20259 -1.29552,0.98442 l -5.15265,-1.19853 c -0.88198,-0.21817 -1.29552,0.0985 -1.29552,0.98443 l 0.0177,6.56451 2e-5,18.17244 -73.452577,5.3e-4"
       id="path6536-3-7" />
    <path
       style="display:inline;opacity:1;fill:none;fill-opacity:1;stroke:#ff0000;stroke-width:0.26458332;stroke-linecap:butt;stroke-linejoin:miter;stroke-miterlimit:4;stroke-dasharray:none;stroke-dashoffset:0;stroke-opacity:1;paint-order:normal"
       d="m 133.20892,115.85019 v 24.42394 H 79.108926 v 0 -16.44 H 83.8583 l -1.3e-4,-7.98402"
       id="path1622-8"
       inkscape:connector-curvature="0" />
    <path
       style="display:inline;opacity:1;fill:none;fill-opacity:1;stroke:#ff0000;stroke-width:0.26458332;stroke-linecap:butt;stroke-linejoin:miter;stroke-miterlimit:4;stroke-dasharray:none;stroke-dashoffset:0;stroke-opacity:1;paint-order:normal"
       d="m 83.858165,115.3504 -2.64e-4,-24.421272 v 0 h 49.351149 v 24.421352"
       id="path1618-4"
       inkscape:connector-curvature="0" />
    <path
       inkscape:connector-curvature="0"
       id="path2006-5"
       d="m 12.401705,65.253993 6.88e-4,11.424555 9.075467,2.64e-4 9.075468,-0.0013 h 6.577034 c 0.885944,0 1.2026,-0.394049 0.984435,-1.27603 L 36.91625,70.248846 c -0.218165,-0.881983 0.09849,-1.295532 0.984435,-1.295532 h 13.264677 c 0.885944,0 1.2026,0.413549 0.984438,1.295532 l -1.198547,5.152636 c -0.218168,0.881981 0.09849,1.275924 0.984432,1.27603 l 6.578389,7.94e-4 8.202081,-1.09e-4"
       style="display:inline;fill:none;stroke:#ff0000;stroke-width:0.26499999;stroke-linecap:butt;stroke-linejoin:miter;stroke-miterlimit:4;stroke-dasharray:none;stroke-opacity:1"
       sodipodi:nodetypes="ccccsccssccccc" />
    <path
       sodipodi:nodetypes="cccccsscccccccccssccccc"
       inkscape:connector-curvature="0"
       style="display:inline;fill:none;stroke:#ff0000;stroke-width:0.26499999;stroke-linecap:butt;stroke-linejoin:miter;stroke-miterlimit:4;stroke-dasharray:none;stroke-opacity:1"
       d="m 66.716183,12.412889 -8.276106,-5.29e-4 -6.5044,-1.23e-4 c -0.885944,2.64e-4 -1.2026,0.413559 -0.984438,1.295541 l 1.198547,5.152641 c 0.218168,0.881982 -0.09849,1.295528 -0.984432,1.295528 H 37.900677 c -0.885944,0 -1.2026,-0.413546 -0.984438,-1.295528 l 1.19855,-5.152641 c 0.218165,-0.881982 -0.09849,-1.295529 -0.984435,-1.295529 l -6.502816,-2.91e-4 -18.226234,9.8e-5 -5.03e-4,18.230291 1.59e-4,6.493164 c 2.64e-4,0.885952 0.413559,1.2026 1.295541,0.98444 l 5.152641,-1.198549 c 0.881982,-0.21816 1.295528,0.0985 1.295528,0.98444 -1e-6,4.421556 -1e-6,8.843111 0,13.264666 0,0.885942 -0.413546,1.2026 -1.295528,0.98443 l -5.152641,-1.198549 c -0.881982,-0.21816 -1.295528,0.0985 -1.295528,0.98444 l 3.18e-4,6.502771 3.96e-4,6.310169"
       id="path6534-03" />
    <path
       sodipodi:nodetypes="ccccccsscccccc"
       inkscape:connector-curvature="0"
       style="display:inline;fill:none;stroke:#ff0000;stroke-width:0.26499999;stroke-linecap:butt;stroke-linejoin:miter;stroke-miterlimit:4;stroke-dasharray:none;stroke-opacity:1"
       d="m 67.215844,12.412889 73.451386,5.3e-5 1e-4,18.142381 -0.0168,6.580175 c -0.0105,0.88588 0.41356,1.2026 1.29554,0.984432 l 5.15265,-1.198541 c 0.88198,-0.21817 1.29552,0.0985 1.29552,0.98443 v 13.264679 c 0,0.885941 -0.41354,1.2026 -1.29552,0.984429 l -5.15265,-1.198538 c -0.88198,-0.21817 -1.29552,0.0985 -1.29552,0.98443 l 0.0177,6.564518 2e-5,18.172441 -73.452577,5.29e-4"
       id="path6536-6" />
    <path
       style="display:inline;opacity:1;fill:none;fill-opacity:1;stroke:#ff0000;stroke-width:0.26458332;stroke-linecap:butt;stroke-linejoin:miter;stroke-miterlimit:4;stroke-dasharray:none;stroke-dashoffset:0;stroke-opacity:1;paint-order:normal"
       d="m 133.20892,44.795177 v 24.423936 l -54.099994,-2e-6 v 0 -16.439999 H 83.8583 l -1.3e-4,-7.984017"
       id="path1638-1"
       inkscape:connector-curvature="0" />
    <path
       style="display:inline;opacity:1;fill:none;fill-opacity:1;stroke:#ff0000;stroke-width:0.26458332;stroke-linecap:butt;stroke-linejoin:miter;stroke-miterlimit:4;stroke-dasharray:none;stroke-dashoffset:0;stroke-opacity:1;paint-order:normal"
       d="m 83.858165,44.295385 -2.64e-4,-24.421273 v 0 h 49.351149 v 24.421352"
       id="path1634-0"
       inkscape:connector-curvature="0" />
  </g>
</svg>
